<?xml version="1.0" encoding="UTF-8" standalone="no"?>
<!-- Created with Inkscape (http://www.inkscape.org/) -->

<svg
   version="1.1"
   id="svg535"
   width="130.66667"
   height="130.66667"
   viewBox="0 0 130.66667 130.66667"
   sodipodi:docname="turtle.svg"
   inkscape:version="1.1.2 (b8e25be833, 2022-02-05)"
   xmlns:inkscape="http://www.inkscape.org/namespaces/inkscape"
   xmlns:sodipodi="http://sodipodi.sourceforge.net/DTD/sodipodi-0.dtd"
   xmlns="http://www.w3.org/2000/svg"
   xmlns:svg="http://www.w3.org/2000/svg">
  <defs
     id="defs539" />
  <sodipodi:namedview
     id="namedview537"
     pagecolor="#ffffff"
     bordercolor="#111111"
     borderopacity="1"
     inkscape:pageshadow="0"
     inkscape:pageopacity="0"
     inkscape:pagecheckerboard="1"
     showgrid="false"
     inkscape:zoom="6.1836732"
     inkscape:cx="65.333336"
     inkscape:cy="65.333336"
     inkscape:window-width="1920"
     inkscape:window-height="1017"
     inkscape:window-x="-8"
     inkscape:window-y="-8"
     inkscape:window-maximized="1"
     inkscape:current-layer="g541" />
  <g
     inkscape:groupmode="layer"
     inkscape:label="Image"
     id="g541">
    <path
       style="fill:none;stroke:#000000;stroke-width:1px;stroke-linecap:butt;stroke-linejoin:miter;stroke-opacity:1"
       d="m 43.339936,76.491752 c -0.03573,0.487966 -0.185733,0.718914 -0.323433,1.132013 -0.09453,0.283597 0.02808,0.879278 0,1.132014 -0.06287,0.565844 -0.197656,0.952341 -0.323432,1.455445 -0.03922,0.156888 0.07232,0.340505 0,0.485149 -0.653901,1.307802 -1.510655,2.662374 -2.10231,4.042904 -0.3005,0.701167 -0.732049,1.017215 -1.132014,1.617162 -0.228979,0.343469 -0.188126,0.793749 -0.323432,1.132013 -0.285047,0.712617 -0.67042,1.352619 -0.970297,2.102311 -0.105297,0.263242 -0.09674,0.743607 -0.323432,0.970297 -0.03812,0.03812 -0.137609,-0.04821 -0.161717,0 -0.06469,0.129373 0.06469,0.355775 0,0.485148 -0.465985,0.931971 -1.531721,1.246427 -2.10231,2.10231 -0.347553,0.52133 -0.479375,1.123353 -0.808581,1.617162 -0.385249,0.577874 -0.685685,0.685686 -1.132013,1.132014 -0.07226,0.07226 -0.485149,0.21707 -0.485149,0.323432 0,0.142849 2.096755,0.648717 2.587459,0.485148 0.328047,-0.109349 0.678306,-0.387818 0.970297,-0.485148 0.455631,-0.151877 0.979533,-0.133067 1.455446,-0.323432 0.376271,-0.150509 1.188452,-0.719584 1.455446,-0.808581 0.102278,-0.03409 0.221154,0.03409 0.323432,0 0.158909,-0.05297 0.266825,-0.400238 0.323432,-0.485149 0.370287,-0.55543 1.112533,-0.883924 1.455446,-1.455446 0.0877,-0.146171 0.08548,-0.332681 0.161716,-0.485148 0.13288,-0.265759 0.450401,-0.225201 0.646865,-0.323432 0.443796,-0.221899 0.555693,-0.855611 0.970297,-1.132014 0.456318,-0.304212 1.002094,-0.506346 1.455445,-0.808581 0.310993,-0.207328 0.497589,-0.601252 0.808581,-0.80858 0.438972,-0.292648 0.990497,-0.505349 1.29373,-0.808581 0.745067,-0.745068 1.127137,-1.76425 1.455445,-2.749175 0.07028,-0.210852 0.03843,-0.461936 0.161717,-0.646865 0.403274,-0.604911 2.369157,-4.127783 1.778878,-5.013202 -0.196398,-0.294596 -0.344791,-0.366149 -0.485149,-0.646864 -0.04882,-0.09764 0.07476,-0.410393 0,-0.485149 -0.130271,-0.130271 -0.669035,-0.345603 -0.808581,-0.485148 -0.03812,-0.03812 0.04821,-0.137609 0,-0.161717 -0.512402,-0.2562 -0.150493,0.334656 -0.646865,-0.161716 -0.03812,-0.03812 0.03812,-0.123599 0,-0.161716 -0.613105,-0.613105 -1.347068,-0.880266 -2.10231,-1.132013 -0.120733,-0.04024 -0.38103,0.06941 -0.485148,0 -0.126861,-0.08457 -0.196572,-0.238859 -0.323433,-0.323432 -0.161027,-0.107352 -1.333627,-0.161717 -1.617162,-0.161717"
       id="path1979" />
    <path
       style="fill:none;stroke:#000000;stroke-width:1px;stroke-linecap:butt;stroke-linejoin:miter;stroke-opacity:1"
       d="m 20.214522,112.39274 c 0.772965,-0.20304 1.698887,-0.31139 2.425743,-0.64686 0.352939,-0.1629 0.630497,-0.45809 0.970297,-0.64687 0.358869,-0.19937 0.773144,-0.28577 1.132013,-0.48514 1.559787,-0.86655 2.904823,-1.77484 4.366337,-2.74918 0.06993,-0.0466 1.106401,-1.21689 1.132013,-1.29373 0.03409,-0.10228 -0.0598,-0.23373 0,-0.32343 0.06686,-0.10029 0.238201,-0.0765 0.323433,-0.16172 0.05391,-0.0539 0.10781,-0.43124 0.161716,-0.48515 0.08523,-0.0852 0.256571,-0.0614 0.323432,-0.16171 0.0598,-0.0897 -0.04821,-0.22701 0,-0.32343 0.09703,-0.19406 0.388119,-0.29109 0.485149,-0.48515 0.222589,-0.44518 0.489212,-0.98249 0.646864,-1.45545 0.03409,-0.10228 -0.07623,-0.2472 0,-0.32343 0.08523,-0.0852 0.251111,-0.0653 0.323433,-0.16172 0.102278,-0.13637 0.07401,-0.33897 0.161716,-0.48515 0.216384,-0.36064 0.855822,-1.01753 1.132013,-1.29372 0.346601,-0.34661 0.937239,-0.4521 1.29373,-0.80859 0.08102,-0.081 0.0557,-0.540843 0.161716,-0.646861 0.03812,-0.03812 0.123599,0.03812 0.161716,0 0.313511,-0.313511 1.126821,-1.831052 1.455446,-1.940594 0.102278,-0.03409 0.227003,0.04821 0.323432,0 0.07888,-0.03944 0.386965,-0.710397 0.485148,-0.808581 0.176663,-0.176662 0.675454,-0.352021 0.808581,-0.485148 0.08523,-0.08523 0.07648,-0.238201 0.161717,-0.323432 0.181839,-0.18184 0.59261,-0.341169 0.80858,-0.485149 0.92739,-0.61826 1.981645,-1.740314 2.264027,-2.587459 0.468068,-1.404205 1.96348,-1.96348 2.910891,-2.910891 0.199051,-0.199051 0.490084,-0.761257 0.646865,-0.970297 0.352693,-0.470258 0.863503,-0.918425 1.132013,-1.455446 0.292796,-0.585591 0.579498,-1.192678 0.970297,-1.778878 0.08457,-0.12686 0.275218,-0.178789 0.323432,-0.323432 0.03409,-0.102278 -0.03409,-0.221154 0,-0.323432 0.07232,-0.216965 0.358288,-0.294858 0.485149,-0.485149 0.390661,-0.585991 0.80554,-1.128972 1.293729,-1.617162 0.157137,-0.157136 0.796267,-0.311118 0.970298,-0.485148 0.10033,-0.100331 0.268717,-0.376933 0.485148,-0.485149 0.04821,-0.02411 0.107811,0 0.161716,0 0.107811,-0.0539 0.22314,-0.09485 0.323433,-0.161716 0.483244,-0.322163 1.064714,-0.99273 1.617161,-0.808581 0.578993,0.192998 0.392478,0.2135 0.970297,0.646865 0.540647,0.405485 1.377247,0.568665 1.940595,1.132013 0.157159,0.15716 0.06232,0.448072 0.161716,0.646865 0.06818,0.136371 0.275218,0.178789 0.323432,0.323432 0.289417,0.86825 -0.581556,-0.39807 0.323432,0.808581 0.285536,0.380714 0.909643,1.576756 0.646865,2.10231 -0.50606,1.012121 -0.273095,0.273095 -0.808581,0.808581 -0.756198,0.756199 -1.020988,2.016632 -1.617162,2.910891 -0.161543,0.242315 -0.506074,0.344359 -0.646864,0.485149 -0.03812,0.03812 0.03812,0.123599 0,0.161716 -0.498066,0.498066 -1.36049,0.622234 -1.940594,0.970297 -0.535975,0.321585 -1.245333,1.188673 -1.778878,1.455446 -0.324203,0.162101 -0.985241,0.300055 -1.29373,0.485148 -0.103359,0.06202 -0.07648,0.238201 -0.161716,0.323433 -0.190584,0.190584 -0.45628,0.294564 -0.646865,0.485148 -0.53711,0.537111 -0.853754,1.192245 -1.293729,1.778878 -0.137221,0.182961 -0.412827,0.268184 -0.485149,0.485149 -0.03409,0.102278 0.03409,0.221154 0,0.323432 -0.08625,0.258746 -0.560616,0.388119 -0.646864,0.646865 -0.03409,0.102278 0.0598,0.233728 0,0.323432 -0.06686,0.100292 -0.238201,0.07648 -0.323433,0.161716 -0.392776,0.392777 0.04809,0.237468 -0.323432,0.485149 -0.736715,0.491143 -1.39462,1.086389 -2.10231,1.617159 -0.329727,0.2473 -0.82695,0.44349 -1.132014,0.64687 -1.497598,0.9984 1.537286,-0.62433 -0.970297,0.80858 -0.148004,0.0846 -0.352038,0.0552 -0.485148,0.16171 -0.151769,0.12142 -0.171664,0.36374 -0.323433,0.48515 -0.133109,0.10649 -0.338977,0.074 -0.485148,0.16172 -0.386617,0.23197 -0.734313,0.77145 -1.132013,0.9703 -0.169712,0.0849 -0.478211,0.0493 -0.646865,0.16171 -0.953991,0.636 -1.870181,1.42024 -2.910891,1.9406 -0.259643,0.12982 -0.556539,0.17941 -0.808581,0.32343 -0.606735,0.3467 -1.127411,1.01453 -1.778878,1.29373 -0.204287,0.0876 -0.440504,0.0792 -0.646865,0.16171 -0.274106,0.10965 -0.533344,0.50925 -0.808581,0.64687 -0.144643,0.0723 -0.32826,-0.0392 -0.485148,0 -0.316704,0.0792 -0.542851,0.35228 -0.808581,0.48515 -0.266341,0.13317 -0.699557,0.0263 -0.970297,0.16171 -0.04822,0.0241 0,0.10781 0,0.16172 -0.05391,0.0539 -0.0894,0.13761 -0.161716,0.16172 -0.19406,0.0647 -0.452806,-0.0647 -0.646865,0 -0.450847,0.15028 -0.843963,0.3727 -1.293729,0.48514 -0.780919,0.19523 0.008,0.0769 -0.485149,0.32344 -0.574773,0.28738 -1.332661,0.40369 -1.940594,0.64686 -0.342518,0.13701 -1.298877,0.56987 -1.617162,0.80858 -0.04312,0.0324 0.03812,0.1236 0,0.16172 -0.244116,0.24412 -0.837165,0.17601 -1.132013,0.32343 -0.264706,0.13235 -0.543876,0.3528 -0.808581,0.48515 -0.198793,0.0994 -0.436013,-0.0914 -0.646865,-0.16172 z"
       id="path1981" />
    <path
       style="fill:none;stroke:#000000;stroke-width:1px;stroke-linecap:butt;stroke-linejoin:miter;stroke-opacity:1"
       d="m 43.9868,69.537957 c -0.06594,2.992699 1.731376,3.210572 3.719472,4.20462 0.590412,0.295206 1.043044,1.410961 1.455446,1.617162 0.646396,0.323198 1.270599,0.797016 1.940594,1.132013 0.954463,0.477232 2.05419,0.766614 3.072608,0.970297 0.277783,0.05556 0.423949,0.249128 0.646864,0.323433 0.523707,0.174568 1.242105,-0.119283 1.778878,0 0.235332,0.0523 0.423035,0.2339 0.646865,0.323432 0.411833,0.164733 1.018699,0.17785 1.455446,0.323432 0.339604,0.113202 0.630693,0.371947 0.970297,0.485149 0.102278,0.03409 0.233728,-0.0598 0.323432,0 0.126861,0.08457 0.187061,0.255247 0.323432,0.323432 0.09643,0.04821 0.218841,-0.02615 0.323433,0 0.491198,0.1228 1.145373,0.469944 1.617161,0.646865 0.338585,0.126969 0.619486,0.397446 0.970298,0.485148 0.515771,0.128943 1.09317,0.380351 1.617161,0.485149 0.158576,0.03171 0.331731,-0.05114 0.485149,0 0.184385,0.06146 0.300764,0.261971 0.485148,0.323432 0.153418,0.05114 0.331732,-0.05114 0.485149,0 0.184385,0.06146 0.304691,0.25125 0.485148,0.323433 0.543757,0.217502 3.17375,0 4.042905,0 2.024158,0 5.029228,0.319425 6.953796,-0.161717 1.330551,-0.332637 2.957271,-0.73169 4.042904,-1.455445 0.340904,-0.227269 0.930524,-0.212744 1.293729,-0.485149 0.354497,-0.265872 1.231592,-0.939228 1.617162,-1.132013 0.09643,-0.04821 0.221154,0.03409 0.323433,0 0.19156,-0.06385 0.303304,-0.394226 0.485148,-0.485148 0.311832,-0.155917 0.658465,-0.329233 0.970297,-0.485149 0.26048,-0.13024 0.695105,-0.185836 0.970297,-0.323432 0.247358,-0.123679 0.782301,-0.50698 1.132013,-0.646865 0.13254,-0.05302 0.654226,-0.08454 0.808581,-0.161716 0.108859,-0.05443 0.606873,-0.444807 0.808581,-0.485149 0.610603,-0.12212 1.384648,-0.207175 1.940594,-0.485148 0.282306,-0.141153 1.260947,0.02431 1.455446,0 0.946382,-0.118298 0.0874,-0.143137 0.808581,-0.323433 0.691136,-0.172784 1.552213,-0.383461 2.264026,-0.485148 0.191486,-0.02736 2.236041,-0.304776 2.264027,-0.323433 0.12686,-0.08457 0.192692,-0.244988 0.323432,-0.323432 0.114482,-0.493082 0.448072,-0.06232 0.646865,-0.161716 0.165332,-0.08267 0.721792,-0.516684 0.808582,-0.646865 0.36552,-0.548281 0.69171,-1.338576 1.13201,-1.778878 0.0381,-0.03812 0.1236,0.03812 0.16172,0 0.19806,-0.198058 0.22698,-0.47475 0.48515,-0.646864 0.34594,-0.230626 0.89772,-0.574287 1.13201,-0.808581 0.20072,-0.200723 0.20357,-0.365284 0.32343,-0.485149 0.0852,-0.08523 0.25657,-0.06142 0.32343,-0.161716 0.0598,-0.0897 -0.0341,-0.221154 0,-0.323432 0.0537,-0.16118 0.52552,-0.788266 0.64687,-0.970297 0.28039,-0.420586 0.3408,-0.860674 0.48515,-1.29373 0.18482,-0.554455 0.54763,-1.095262 0.80858,-1.617162 0.16512,-0.330251 0.0255,-0.697914 0.16172,-0.970297 0.0682,-0.136371 0.23885,-0.196571 0.32343,-0.323432 0.0874,-0.131087 0.16171,-1.10131 0.16171,-1.29373"
       id="path1983" />
    <path
       style="fill:none;stroke:#000000;stroke-width:1px;stroke-linecap:butt;stroke-linejoin:miter;stroke-opacity:1"
       d="m 103.33664,36.062708 c -0.10781,-0.215622 -0.15297,-0.476401 -0.32343,-0.646865 -0.12054,-0.120536 -0.34878,-0.05944 -0.48515,-0.161716 -0.0964,-0.07232 -0.0765,-0.238201 -0.16172,-0.323433 -0.2753,-0.275303 -0.56235,-0.277523 -0.80858,-0.646864 -0.0692,-0.103843 0,-0.516893 0,-0.646865 0,-0.104166 -0.0721,-0.700414 0,-0.808581 0.76053,-1.140794 2.62161,-1.635846 3.88119,-1.132013 0.58266,0.233066 1.26836,0.391607 1.77888,0.646865 0.79202,0.39601 3.57044,-0.475632 4.85148,0.485148 0.42253,0.3169 0.62515,0.786868 0.9703,1.132013 0.0381,0.03812 0.10781,0 0.16171,0 0.10782,0.05391 0.2382,0.07648 0.32344,0.161717 0.27709,0.277089 0.81599,1.154241 0.97029,1.617161 0.17766,0.53296 -0.13659,1.23249 0,1.778878 0.0945,0.378068 0.36687,1.542316 0.48515,1.778878 0.0539,0.107811 0.2382,0.07649 0.32343,0.161716 0.29897,0.298966 0.35434,0.338886 0.64687,0.485149 0.67302,0.336512 -0.17288,-0.01116 0.16172,0.323432 0.10781,0.107811 0.53905,-0.10781 0.64686,0 0.0704,0.07039 0.0479,1.036161 0,1.132014 -0.17972,0.359442 -0.57675,0.784266 -0.80858,1.132013 -0.22752,0.341272 -0.23313,0.609095 -0.32343,0.970297 -0.0818,0.327251 -0.39757,0.384109 -0.48515,0.646865 -0.0341,0.102278 0.0341,0.221154 0,0.323432 -0.058,0.174102 -0.92462,0.878935 -0.9703,0.970297 -0.0639,0.127707 0.0455,0.348766 0,0.485149 -0.39046,1.171377 0.0466,-0.254963 -0.32343,0.485148 -0.51979,1.039579 0.20676,3.121724 -0.16172,4.042905 -0.0566,0.141562 -0.23886,0.196571 -0.32343,0.323432 -0.0897,0.134556 0.0392,0.328261 0,0.485148 -0.10781,0.431244 -0.18286,0.872026 -0.32343,1.29373 -0.18355,0.550644 -0.7829,0.893252 -0.9703,1.455445 -0.45948,1.378459 -0.97214,2.754706 -1.45544,4.204621 -0.30469,0.914057 -0.21449,2.371271 -1.29373,2.910891 -0.20097,0.100482 -2.58746,0.496615 -2.58746,0.646865 0,0.170463 0.10781,0.323432 0.16171,0.485148"
       id="path1985" />
    <path
       style="fill:none;stroke:#000000;stroke-width:1px;stroke-linecap:butt;stroke-linejoin:miter;stroke-opacity:1"
       d="m 40.429044,34.445546 c 1.173063,0.223253 4.127018,-0.429073 5.013202,0.161716 0.365345,0.243564 0.13113,0.869753 0,1.132013 -0.02411,0.04821 0.04821,0.137609 0,0.161716 -0.09643,0.04821 -0.227003,-0.04821 -0.323432,0 -0.513993,0.256997 -1.02951,0.823384 -1.617162,0.970298 -0.104592,0.02615 -0.223333,-0.04004 -0.323432,0 -0.353771,0.141508 -1.799692,1.077573 -2.102311,1.293729 -0.927252,0.662323 -0.09937,0.261083 -0.808581,0.970297 -0.08523,0.08523 -0.2382,0.07648 -0.323432,0.161716 -0.36223,0.36223 -0.758323,1.031498 -0.970297,1.455446 -0.144933,0.289866 -0.797215,0.473782 -0.970297,0.646865 -0.03812,0.03812 0.03812,0.123599 0,0.161716 -0.266825,0.266824 -0.690361,0.183464 -0.970297,0.323432 -0.641869,0.320935 0.714733,0.05111 -0.646865,0.323432 -0.273741,0.05475 -1.224623,0.115412 -1.455446,0 -0.191045,-0.09552 -0.306749,-0.366215 -0.485148,-0.485148 -1.489116,-0.992744 0.753474,0.538453 -0.646865,-0.161716 -0.01741,-0.0087 -0.195143,-0.259288 -0.323432,-0.323433 -0.698313,-0.349156 -1.838589,0.249624 -2.587459,0 -0.625175,-0.208391 -0.363975,-0.404517 -0.646865,-0.970297 -0.01577,-0.03153 -0.288343,-0.126627 -0.323432,-0.161716 -0.107811,-0.107811 0.107811,-0.539054 0,-0.646865 -0.243286,-0.243285 -0.481366,-0.01135 -0.323432,-0.485148 0.09007,-0.27022 1.375968,-0.687984 1.617161,-0.808581 0.287011,-0.143505 0.867938,0.176051 1.132014,0 0.100292,-0.06686 0.06142,-0.256571 0.161716,-0.323432 0.276557,-0.184372 0.97859,-0.07168 1.293729,-0.161717 0.347695,-0.09934 0.646865,-0.323432 0.970297,-0.485148 0.479041,-0.23952 1.741837,-0.933256 2.102311,-1.29373 0.08523,-0.08523 0.07648,-0.2382 0.161716,-0.323432 0.465166,-0.465166 1.272692,-0.555488 1.778878,-0.808581 0.673024,-0.336512 -0.172881,0.01116 0.161716,-0.323432 0.09784,-0.09784 1.452191,0 1.455445,0 z"
       id="path1987" />
    <path
       style="fill:none;stroke:#000000;stroke-width:1px;stroke-linecap:butt;stroke-linejoin:miter;stroke-opacity:1"
       d="m 27.168318,31.696371 c -1.75426,0.159835 -1.265769,1.975859 -2.425743,2.749175 -0.62869,0.419127 -0.313631,0.475347 -0.646864,0.808581 -0.267916,0.267915 -0.786083,0.624366 -0.970298,0.808581 -0.188138,0.188139 -1.362516,2.842104 -0.970297,3.234323 0.401483,0.401483 1.053963,-0.07805 1.455446,0.323433 0.03812,0.03812 -0.03812,0.123599 0,0.161716 0.08414,0.08415 0.510129,0 0.646865,0 0.52154,0 2.524629,0.193131 2.910891,0 0.415429,-0.207715 0.553842,-0.276921 0.970297,-0.485149 0.09643,-0.04821 0.227003,0.04822 0.323432,0 0.334925,-0.167462 0.620116,-0.471774 0.970297,-0.646864 0.203883,-0.101942 0.591674,-0.05326 0.808581,-0.161717 0.71179,-0.355894 1.538326,-0.607446 2.264027,-0.970297 0.740111,-0.370055 -0.686229,0.06703 0.485148,-0.323432 0.28063,-0.09354 0.354506,0.130643 0.646865,-0.161716 0.08523,-0.08523 0.07648,-0.238201 0.161716,-0.323433 0.396236,-0.396235 1.266651,-0.714183 1.778878,-0.970297 0.381323,-0.190661 0.622435,-0.576673 0.970297,-0.808581 0.571553,-0.381035 1.626076,-0.655778 2.102311,-1.132013 0.09252,-0.09252 0,-0.685423 0,-0.808581 0,-0.108694 0.04772,-0.389709 0,-0.485148 -0.758354,-1.516707 -8.023526,-1.29373 -10.026404,-1.29373 -0.159923,0 -1.223739,-0.104985 -1.293729,0 -0.09456,0.141835 -0.107811,0.323433 -0.161716,0.485149 z"
       id="path1989" />
    <path
       style="fill:none;stroke:#000000;stroke-width:1px;stroke-linecap:butt;stroke-linejoin:miter;stroke-opacity:1"
       d="m 36.871289,23.125413 c -1.853301,-0.09951 -3.075126,0.650642 -4.042905,2.102311 -0.305755,0.458633 -0.617403,1.102551 -0.970297,1.455445 -0.712447,0.712447 -1.507063,1.345347 -2.10231,1.940594 -0.496161,0.496161 -0.808581,0.502809 -0.808581,1.29373 0,0.161716 -0.114351,0.370798 0,0.485148 0.09212,0.09212 3.255687,0 3.557756,0 1.165407,0 5.564687,-0.247414 6.306931,0 1.038023,0.346008 1.990563,0.349893 3.072607,0.485149 0.862023,0.107753 1.779929,0.215972 2.587459,0.485149 0.748075,0.249358 2.129361,0 2.910891,0 0.706409,0 2.050777,0.232799 2.749175,0 0.255696,-0.08523 0.405793,-0.364613 0.646865,-0.485149 0.372365,-0.186183 1.113149,-0.285705 1.293729,-0.646865 0.05018,-0.100357 0,-0.574929 0,-0.646864 0,-1.466838 -0.324363,-1.132634 -1.293729,-1.778878 -0.257552,-0.171702 -0.753072,-0.286427 -0.808581,-0.323433 -0.100292,-0.06686 -0.06529,-0.25111 -0.161716,-0.323432 -0.355848,-0.266886 -0.92174,-0.206156 -1.29373,-0.485149 -1.964318,-1.473238 -4.684472,-2.607011 -7.115511,-2.910891 -1.07587,-0.134484 -0.278829,-0.09294 -0.970298,-0.323432 -0.424415,-0.141472 -1.01359,-0.05125 -1.455445,-0.161716 -0.834225,-0.208557 -1.187145,-0.390508 -2.10231,-0.161717 z"
       id="path1991" />
    <path
       style="fill:none;stroke:#000000;stroke-width:1px;stroke-linecap:butt;stroke-linejoin:miter;stroke-opacity:1"
       d="m 46.897692,19.244225 c -2.057387,0.0089 -4.394997,-0.632535 -6.306931,0.323433 -0.07925,0.03962 -0.435759,0.175263 -0.485149,0.323432 -0.129562,0.388686 -0.07761,1.552551 0,1.940594 0.134709,0.673545 1.629243,1.651921 2.264027,1.778878 0.158575,0.03171 0.32826,-0.03922 0.485148,0 0.07164,0.01791 2.466543,1.447582 2.749175,1.617162 0.19611,0.117666 0.280592,0.38287 0.485149,0.485148 0.267431,0.133716 0.827137,0.06009 1.132013,0.161716 0.979846,0.326616 1.678019,0.83901 2.587459,1.29373 0.486924,0.243462 0.986303,0.334103 1.455445,0.646865 0.299854,0.199902 0.376379,0.349905 0.646865,0.485148 0.469172,0.234586 0.970953,0.566335 1.455446,0.808581 0.129764,0.06488 0.349875,-0.05411 0.485148,0 0.462362,-0.294042 0.556308,0.359012 0.808581,0.485149 0.500113,0.250056 3.226156,0 3.881188,0 0.129973,0 0.543023,0.06923 0.646865,0 0.126861,-0.08457 0.215622,-0.215622 0.323432,-0.323433 0.309463,-0.309462 0.230162,-0.4261 0.485149,-0.808581 0.0299,-0.04485 0.123599,0.03812 0.161716,0 0.08496,-0.08495 0.471097,-1.792929 0.323433,-1.940594 -0.165083,-0.165082 -1.137885,-0.57041 -1.455446,-0.808581 -0.453467,-0.3401 -0.748276,-0.748275 -1.132013,-1.132013 -0.23575,-0.235749 -1.012542,-0.446016 -1.29373,-0.646865 -0.420329,-0.300235 -0.770256,-0.795806 -1.293729,-0.970297 -0.153418,-0.05114 -0.328261,0.03922 -0.485149,0 -0.512101,-0.128025 -1.781076,-1.003959 -2.264026,-1.293729 -0.580481,-0.348289 -1.187452,-0.756592 -1.617162,-1.29373 -0.121415,-0.151768 -0.167945,-0.368533 -0.323432,-0.485148 -0.08625,-0.06469 -0.227004,0.04821 -0.323433,0 -0.04821,-0.02411 0.03812,-0.123599 0,-0.161716 -0.09373,-0.09373 -0.553134,-0.229702 -0.646864,-0.323433 -0.03812,-0.03812 0.03812,-0.123599 0,-0.161716 -0.205941,-0.20594 -0.709278,-0.09646 -0.970297,-0.161716 -0.768622,-0.192155 -0.989444,-0.233001 -1.778878,0.161716 z"
       id="path1993" />
    <path
       style="fill:none;stroke:#000000;stroke-width:1px;stroke-linecap:butt;stroke-linejoin:miter;stroke-opacity:1"
       d="m 50.77888,16.980199 c -0.945084,-0.181618 -1.671701,0.740407 -0.970297,1.617161 0.121415,0.151769 0.329661,0.206818 0.485148,0.323433 0.495362,0.371521 -0.265153,-0.103437 0.323433,0.485148 0.305396,0.305396 0.781274,0.545527 1.132013,0.808581 0.474807,0.356105 0.60909,0.979976 1.132013,1.29373 0.281167,0.1687 0.65923,0.05803 0.970297,0.161716 0.770436,0.256812 1.478574,0.825927 2.102311,1.293729 0.451233,0.338426 1.45562,0.889527 1.940594,1.132014 0.194059,0.09703 0.291089,0.388118 0.485148,0.485148 0.09643,0.04821 0.221154,-0.03409 0.323433,0 0.362491,0.12083 0.735059,0.514547 1.132013,0.646865 0.792806,0.264269 1.547155,0.654099 2.264026,1.132013 0.483173,0.322115 1.053852,0.730419 1.455446,1.132013 0.03812,0.03812 -0.03812,0.1236 0,0.161716 0.03812,0.03812 0.123599,-0.03812 0.161716,0 0.163443,0.163443 0.328424,0.761332 0.485149,0.970297 0.13722,0.182961 0.358288,0.294858 0.485148,0.485149 0.09456,0.141834 0.05944,0.348778 0.161716,0.485149 0.07232,0.09643 0.251111,0.06529 0.323433,0.161716 0.102278,0.136371 0.04118,0.364612 0.161716,0.485148 0.07623,0.07623 0.227003,-0.04821 0.323432,0 0.152468,0.07623 0.0092,0.408915 0.161716,0.485149 0.09643,0.04821 0.227004,-0.04821 0.323433,0 0.04821,0.02411 -0.03812,0.123599 0,0.161716 0.120536,0.120536 0.323432,0.107811 0.485148,0.161716 0.476212,0.158737 1.255146,0 1.778878,0 0.631885,0 1.66044,0.201196 2.264027,0 0.239644,-0.07988 1.055239,-0.655033 1.132013,-0.808581 0.106576,-0.213151 0.181438,-0.59559 0.323432,-0.808581 0.0299,-0.04485 0.137609,0.04821 0.161717,0 0.120536,-0.241072 0,-0.539054 0,-0.808581 0,-0.618512 0.08844,-1.356895 -0.161717,-1.940594 -0.3603,-0.840701 -1.80455,-1.517908 -2.587458,-1.778878 -0.204557,-0.06818 -0.437682,0.0523 -0.646865,0 -0.372899,-0.09322 -0.657771,-0.621065 -0.970297,-0.80858 -0.146172,-0.0877 -0.338977,-0.07401 -0.485149,-0.161717 -0.549319,-0.329591 -0.897903,-1.221336 -1.293729,-1.617161 -0.03812,-0.03812 -0.113502,0.02411 -0.161716,0 -0.241073,-0.120537 -0.294565,-0.456281 -0.485149,-0.646865 -0.473252,-0.473252 -1.236839,-0.93237 -1.778878,-1.29373 -0.200584,-0.133722 -0.476401,-0.152968 -0.646865,-0.323432 -0.08523,-0.08523 -0.06759,-0.248134 -0.161716,-0.323432 -0.620524,-0.49642 -1.435165,-0.541723 -2.10231,-0.808581 -0.586209,-0.234484 -0.895385,-0.472545 -1.455446,-0.808581 -0.11977,-0.07186 -0.359625,0.06276 -0.485148,0 -0.610937,-0.305468 -1.393999,-0.631503 -2.102311,-0.808581 -0.104591,-0.02615 -0.227003,0.04821 -0.323432,0 -0.257002,-0.128501 -0.757741,-0.272592 -0.970297,-0.485148 -0.08523,-0.08523 -0.07648,-0.238201 -0.161716,-0.323433 -0.147648,-0.147647 -0.5732,0.07367 -0.808581,-0.161716 -0.09057,-0.09057 -0.09291,-0.246592 -0.323432,-0.323432 -0.205277,-0.06843 -2.729095,-0.114505 -3.072608,0 -0.250597,0.08353 -0.458272,0.296556 -0.646864,0.485148"
       id="path1995" />
    <path
       style="fill:none;stroke:#000000;stroke-width:1px;stroke-linecap:butt;stroke-linejoin:miter;stroke-opacity:1"
       d="m 78.594062,26.036305 c -0.204315,-1.01447 -0.444454,-1.872771 -0.970297,-2.749175 -0.152783,-0.254639 -0.853398,-0.877426 -1.132013,-0.970297 -0.102278,-0.03409 -0.227003,0.04821 -0.323432,0 -0.04821,-0.02411 0.03812,-0.1236 0,-0.161717 -0.263833,-0.263832 -2.438732,-1.746567 -2.749175,-1.940594 -0.704636,-0.440397 -3.017682,-0.646864 -3.719472,-0.646864 -0.363078,0 -1.762075,-0.195322 -1.940594,0.161716 -0.1999,0.399799 0.0051,1.465572 0.161716,1.778878 0.129373,0.258746 -0.129373,0.711551 0,0.970297 0.242954,0.485909 0.54992,0.938124 0.808581,1.455445 0.07232,0.144644 -0.05114,0.331731 0,0.485149 0.241538,0.724614 1.280354,0.956921 1.778878,1.455445 0.20806,0.208061 0.614857,0.906283 0.80858,1.29373 0.163194,0.326387 -0.02085,0.928597 0.161717,1.293729 0.2671,0.534201 0.603466,1.163536 0.808581,1.778878 0.08086,0.242575 -0.08086,0.566007 0,0.808581 0.110676,0.332029 0.400183,0.468721 0.485148,0.808581 0.02615,0.104592 -0.04821,0.227004 0,0.323432 0.04821,0.09643 0.227004,-0.04821 0.323432,0 0.334849,0.167425 0.6394,0.3197 0.970297,0.485149 0.139021,0.06951 5.493274,0.380722 5.821783,0.161716 1.342238,-0.894825 1.247804,-4.677799 0.485148,-5.821782 -0.348478,-0.522719 -1.260045,-0.840589 -1.778878,-0.970297 z"
       id="path1997" />
    <path
       style="fill:none;stroke:#000000;stroke-width:1px;stroke-linecap:butt;stroke-linejoin:miter;stroke-opacity:1"
       d="m 63.87789,19.89109 c -0.747336,-2.26674 4.353788,-2.774273 5.013202,-1.455446 0.254295,0.508591 -0.132263,2.366837 -0.323433,2.749175 -0.102624,0.205249 0,0.720195 0,0.970297 0,0.334522 0.2588,2.005227 0.161717,2.102311 -0.313701,0.313701 -0.728445,-0.243296 -0.808581,-0.323433 -0.07476,-0.07475 -0.387509,0.04882 -0.485149,0 -0.401581,-0.20079 0.06969,-0.138033 -0.161716,-0.485148 -0.06686,-0.100292 -0.2382,-0.07648 -0.323432,-0.161716 -0.226869,-0.226869 -0.951224,-1.093867 -1.132014,-1.455446 -0.114142,-0.228285 -0.318343,-0.24003 -0.485148,-0.323432 -0.673024,-0.336512 0.17288,0.01116 -0.161716,-0.323433 -0.592474,-0.592473 -1.29373,0.05201 -1.29373,-1.293729 z"
       id="path1999" />
    <path
       style="fill:none;stroke:#000000;stroke-width:1px;stroke-linecap:butt;stroke-linejoin:miter;stroke-opacity:1"
       d="m 71.801983,30.564358 c -0.67017,0.399205 -1.823849,1.362625 -2.587459,1.617161 -0.440946,0.146982 -1.355855,-0.199181 -1.617162,0.323433 -0.07232,0.144643 0,0.323432 0,0.485148 0,1.027768 1.041156,1.041156 1.617162,1.617162 1.078108,1.078108 -0.808581,-0.377338 0.485149,0.485149 0.350045,0.233363 0.0048,0.17607 0.161716,0.646864 0.579822,1.739468 0.102022,-0.119388 0.485148,0.646865 0.129229,0.258457 0.245429,0.658281 0.323433,0.970297 0.06109,0.244361 -0.130499,0.500757 0.161716,0.646865 0.09643,0.04821 0.227003,-0.04821 0.323432,0 0.17384,0.08692 0.311309,0.236512 0.485149,0.323432 0.758184,0.379092 2.795892,-0.380932 3.557756,0 0.577209,0.288605 0.08972,0.898302 0.485148,1.29373 0.09665,0.09665 1.691203,0.137035 2.102311,0 0.05582,-0.01861 0.62982,-0.395769 0.80858,-0.485149 0.176497,-0.08825 0.239018,-0.344457 0.323433,-0.485148 0.533765,-0.88961 0.485148,-1.870603 0.485148,-2.910892 0,-0.269527 -0.08523,-0.552885 0,-0.808581 0.07921,-0.237615 0.392066,-1.225095 0.161717,-1.455445 -0.17352,-0.173519 -1.477521,0 -1.778878,0"
       id="path2001" />
    <path
       style="fill:none;stroke:#000000;stroke-width:1px;stroke-linecap:butt;stroke-linejoin:miter;stroke-opacity:1"
       d="m 79.726076,38.165018 c 0.601408,0.186769 0.549366,0.956985 0.970297,1.293729 0.13311,0.106488 0.348777,0.05944 0.485148,0.161717 0.151613,0.113709 0.377467,0.647058 0.485149,0.80858 0.169147,0.253722 0.402917,0.463904 0.646865,0.646865 0.04138,0.03103 0.471826,0.135072 0.485148,0.161716 0.177523,0.355046 -0.07826,0.284301 0.323432,0.485149 0.67084,0.33542 1.824877,0.138717 2.425743,-0.161716 0.02026,-0.01013 0.964882,-0.119934 1.132013,-0.161716 0.169433,-0.04236 0.476807,0.06802 0.646865,0 0.335745,-0.134298 0.619485,-0.397446 0.970297,-0.485149 0.104592,-0.02615 0.247199,0.07623 0.323432,0 0.07623,-0.07623 -0.03409,-0.221154 0,-0.323432 0.04821,-0.144644 0.255247,-0.187062 0.323433,-0.323433 0.06935,-0.138708 0.07276,-0.913728 0,-1.132013 -0.0025,-0.0074 -0.158011,-0.635747 -0.161716,-0.646865 -0.04952,-0.148566 -1.602693,-1.087967 -1.778878,-1.132013 -0.104592,-0.02615 -0.221154,0.03409 -0.323433,0 -0.504768,-0.168256 0.05391,-0.107811 -0.161716,-0.323432 -0.177422,-0.177423 -0.48826,-0.329656 -0.646865,-0.646865 -0.199149,-0.398299 0.46942,0.145987 -0.161716,-0.485149 -0.03812,-0.03812 -0.137609,0.04821 -0.161716,0 -0.04821,-0.09643 0.0598,-0.233728 0,-0.323432 -0.315568,-0.473351 -0.227975,-0.03313 -0.485148,-0.161716 -0.673024,-0.336512 0.17288,0.01116 -0.161717,-0.323432 -0.188736,-0.188737 -1.008748,0.09499 -1.293729,0 -0.488995,-0.162999 -0.964686,-0.401485 -1.455446,-0.646865 -0.245713,-0.122857 -0.389703,-0.399428 -0.646864,-0.485149 -0.102279,-0.03409 -0.227004,0.04821 -0.323433,0 -0.10781,-0.05391 -0.07648,-0.2382 -0.161716,-0.323432 -0.04419,-0.04419 -0.301335,-0.139619 -0.323432,-0.161716 -0.0298,-0.0298 -0.131918,-0.455351 -0.161716,-0.485149 -0.137433,-0.137432 -0.347717,-0.186 -0.485149,-0.323432 -0.137432,-0.137432 -0.236512,-0.311309 -0.323432,-0.485149 -0.07232,-0.144643 0.124234,-0.588676 0,-0.485148 -0.674127,0.561772 -1.293729,1.185919 -1.940594,1.778878"
       id="path2003" />
    <path
       style="fill:none;stroke:#000000;stroke-width:1px;stroke-linecap:butt;stroke-linejoin:miter;stroke-opacity:1"
       d="m 78.594062,26.036305 c 2.075653,-0.130131 -1.650006,-3.848344 -0.485148,-5.013202 0.256351,-0.256351 0.826158,-0.161716 1.132013,-0.161716 0.269527,0 0.567509,-0.120536 0.808581,0 0.01403,0.007 1.20765,1.854514 1.617162,2.264026 0.449562,0.449562 1.426483,0.261282 1.940594,0.646865 0.91147,0.683603 1.726159,1.429086 2.749175,1.940594 0.136371,0.06819 0.178789,0.275218 0.323432,0.323433 0.517853,0.172617 0.856079,0.177549 1.29373,0.323432 0.254226,0.08474 0.621442,0.621442 0.808581,0.808581 0.137432,0.137432 0.368533,0.167945 0.485148,0.323432 0.786355,1.048473 0.153888,2.24054 0.485149,3.234324 0.14366,0.43098 0.213834,0.855335 0.323432,1.293729 0.0509,0.203615 -0.09672,0.615135 0,0.808581 0.240967,0.481934 0.245513,1.623039 0.323432,1.778878 0.115394,0.230788 0.323433,0.195981 0.323433,0.485149"
       id="path2005" />
    <path
       style="fill:none;stroke:#000000;stroke-width:1px;stroke-linecap:butt;stroke-linejoin:miter;stroke-opacity:1"
       d="m 85.87129,36.224424 c 0.269527,-0.05391 0.547822,-0.0748 0.808581,-0.161716 0.429461,-0.143154 0.842881,-0.496582 1.29373,-0.646865 0.420308,-0.140103 1.16429,0 1.617162,0 1.617161,0 3.234323,0 4.851485,0 0.587636,0 1.382685,0.139477 1.940594,0 0.538939,-0.134735 1.098044,-0.03194 1.617162,-0.161716 0.595406,-0.148852 1.154806,-0.485149 1.778878,-0.485149 0.352528,0 1.146968,0.154239 1.455448,0 0.21237,-0.106185 0.45,-0.06329 0.64686,-0.161716 0.0482,-0.02411 -0.0381,-0.199833 0,-0.161716 0.51281,0.51281 0.9703,1.078108 1.45545,1.617162"
       id="path2007" />
    <path
       style="fill:none;stroke:#000000;stroke-width:1px;stroke-linecap:butt;stroke-linejoin:miter;stroke-opacity:1"
       d="m 89.752479,28.138615 c 0.870783,0.181072 1.886931,-0.215561 2.749175,0 0.64055,0.160138 0.930429,0.707789 1.455445,0.970297 0.198794,0.0994 0.456281,0.04737 0.646865,0.161716 0.103359,0.06202 0.07648,0.238201 0.161716,0.323433 0.231162,0.231161 0.538469,0.124999 0.808581,0.485148 0.573927,0.765236 0.91362,1.669681 1.778878,2.10231 0.173458,0.08673 0.260857,0.443432 0.323432,0.485149 0.9053,0.603533 1.805562,0.0089 2.749179,0.323432 0.16171,0.05391 0.0412,0.364613 0.16171,0.485149 0.0381,0.03812 0.1236,-0.03812 0.16172,0 0.28213,0.28213 0.2752,0.655383 0.48515,0.970297 0.0846,0.126861 0.25524,0.187061 0.32343,0.323432 0.0482,0.09643 -0.091,0.265552 0,0.323433 0.56984,0.362623 1.18592,0.646865 1.77888,0.970297"
       id="path2009" />
    <path
       style="fill:none;stroke:#000000;stroke-width:1px;stroke-linecap:butt;stroke-linejoin:miter;stroke-opacity:1"
       d="m 57.409243,38.165018 c 1.271206,-0.08953 2.478354,0.07521 3.719472,0.323432 0.579095,0.115819 1.18277,0.0425 1.778878,0.161717 0.413043,0.08261 0.885843,-0.101972 1.29373,0 0.281622,0.0704 0.525204,0.260459 0.808581,0.323432 0.423911,0.0942 0.868739,0.02005 1.293729,0.161716 0.864677,0.288226 2.813452,1.494012 3.557756,1.940594 1.00254,0.601524 2.521423,0.828344 3.234323,1.778878 0.271684,0.362244 0.698614,0.608053 0.970297,0.970297 0.23065,0.307533 0.496852,2.552351 0.323433,3.072608 -0.359328,1.077983 -4.370842,0.699268 -5.013202,0.485148 -0.28873,-0.09624 -0.675137,0.07379 -0.970297,0 -0.69642,-0.174105 -1.526595,-0.886203 -2.264026,-1.132013 -0.204557,-0.06819 -0.442308,0.06818 -0.646865,0 -0.144643,-0.04821 -0.178789,-0.275218 -0.323432,-0.323432 -0.261479,-0.08716 -0.684232,0 -0.970297,0 -0.747752,0 -2.98336,0.24537 -3.719472,0 -0.385678,-0.12856 -0.858271,-0.534839 -1.132014,-0.808581 -0.366158,-0.366158 -0.501988,-1.31057 -0.808581,-1.617162 -0.08523,-0.08523 -0.2382,-0.07648 -0.323432,-0.161716 -0.190584,-0.190585 -0.244076,-0.526329 -0.485148,-0.646865 -0.177645,-0.08882 -1.378748,-0.655185 -1.455446,-0.808581 -0.165163,-0.330326 -0.309011,-2.939734 -0.161716,-3.234323 0.166968,-0.333936 0.972797,-0.378172 1.293729,-0.485149 z"
       id="path2011" />
    <path
       style="fill:none;stroke:#000000;stroke-width:1px;stroke-linecap:butt;stroke-linejoin:miter;stroke-opacity:1"
       d="m 52.072609,39.135315 c 0.676044,-0.841325 1.754966,-1.062166 2.587459,-1.617162 0.04485,-0.0299 -0.03812,-0.123599 0,-0.161716 0.631135,-0.631135 0.08685,0.03743 0.485149,-0.161716 0.136371,-0.06819 0.187061,-0.255247 0.323432,-0.323432 0.09643,-0.04821 0.247199,0.07623 0.323432,0 0.100331,-0.100331 0.268717,-0.376933 0.485149,-0.485149 0.149456,-0.07473 1.161733,-0.066 1.293729,0 0.07399,0.037 0,1.01054 0,1.132013 0,0.257883 0.112065,0.746167 0,0.970297 -0.504139,1.008279 -2.314065,1.132014 -3.396039,1.132014 -0.48586,0 -1.873841,0.100129 -1.940595,0 -0.09456,-0.141835 -0.10781,-0.323433 -0.161716,-0.485149 z"
       id="path2013" />
    <path
       style="fill:none;stroke:#000000;stroke-width:1px;stroke-linecap:butt;stroke-linejoin:miter;stroke-opacity:1"
       d="m 52.072609,39.135315 c -0.354604,0.373749 -0.591727,0.860022 -0.808581,1.293729 -0.17974,0.35948 0,4.220789 0,4.68977 0,0.130379 -0.143239,1.312206 0,1.455445 0.310353,0.310353 0.773087,0.431509 1.132014,0.646865 0.196109,0.117666 0.268183,0.412827 0.485148,0.485148 0.98493,0.32831 4.022376,0.65713 5.013202,0.161717 0.241184,-0.120592 0.400174,-0.361804 0.646864,-0.485149 0.09643,-0.04821 0.227004,0.04821 0.323433,0 0.655443,-0.327722 0.224728,-0.871593 0.646864,-1.293729"
       id="path2015" />
    <path
       style="fill:none;stroke:#000000;stroke-width:1px;stroke-linecap:butt;stroke-linejoin:miter;stroke-opacity:1"
       d="m 52.072609,39.135315 c -1.062228,-1.124923 -3.35879,2.521137 -4.528053,2.910891 -0.102278,0.03409 -0.227003,-0.04821 -0.323432,0 -0.17384,0.08692 -0.347716,0.186 -0.485149,0.323433 -0.03812,0.03812 0.05114,0.144669 0,0.161716 -0.153417,0.05114 -0.340505,-0.07232 -0.485148,0 -0.396253,0.198126 0.05029,0.360575 -0.323432,0.485148 -0.442549,0.147516 -1.058585,0.220575 -1.455446,0.485149 -0.190291,0.12686 -0.280592,0.38287 -0.485149,0.485148 -0.381823,0.190912 -0.748286,0.35724 -1.132013,0.485149 -0.200648,0.06688 -0.24236,0.404077 -0.323432,0.485148 -0.03812,0.03812 -0.14467,-0.05114 -0.161716,0 -0.09564,0.286911 0.161967,0.808707 0.485148,0.970298 0.09643,0.04821 0.233729,-0.0598 0.323433,0 0.485148,0.323432 0.161716,0.242574 0.485148,0.485148 0.895073,0.671304 1.678039,0.808581 2.749175,0.808581 0.161716,0 -0.323432,0 -0.485148,0 -0.377338,0 -0.754676,0 -1.132014,0 -1.051496,0 -2.068991,0.451829 -2.587459,0.970297 -0.241768,0.241768 -0.678244,1.825948 -0.970297,2.264027 -0.17885,0.268275 -0.606325,0.37719 -0.808581,0.646864 -0.281341,0.375122 -0.753387,1.565832 -0.485148,2.102311 0.02411,0.04821 0.123599,-0.03812 0.161716,0 0.08523,0.08523 0.09486,0.22314 0.161716,0.323432 0.321266,0.481898 -0.03234,-0.183278 0.485149,0.161716 0.294088,0.196059 0.432892,0.782453 0.808581,0.970297 0.152467,0.07623 0.364612,0.04118 0.485148,0.161716 0.07623,0.07623 0,0.215622 0,0.323433 0,1.010507 0.418673,2.206495 0.161716,3.234323 -0.27002,1.080084 -1.189669,1.184043 0.323433,1.940594 0.51347,0.256736 1.846214,-0.114526 2.264026,-0.323432 0.136371,-0.06819 0.187062,-0.255247 0.323433,-0.323432 0.38167,-0.190835 0.925027,-0.239347 1.293729,-0.485149 0.320369,0.01614 0.07648,-0.2382 0.161716,-0.323432 0.128645,-0.128645 0.692388,-0.207239 0.808581,-0.323433 0.08523,-0.08523 0.06142,-0.256571 0.161716,-0.323432 0.0897,-0.0598 0.221154,0.03409 0.323433,0 0.387897,-0.129299 1.29989,-0.976458 1.617161,-1.293729 0.208848,-0.208848 0.439908,-0.76334 0.646865,-0.970297 0.170464,-0.170464 0.454007,-0.178789 0.646865,-0.323433 0.774182,-0.580636 1.340108,-1.085878 2.264026,-1.455445 0.180458,-0.07218 0.300764,-0.261971 0.485149,-0.323433 0.35198,-0.117326 0.995786,-0.187205 1.293729,-0.485148 0.03812,-0.03812 -0.02411,-0.113502 0,-0.161716 0.12948,-0.25896 0.532875,-0.371159 0.646865,-0.485149 0.120061,-0.120061 0,-1.0754 0,-1.293729 0,-0.633296 0.380937,-1.444647 0.161716,-2.102311 -0.109964,-0.329893 -0.346434,-0.531151 -0.485148,-0.808581 -0.154771,-0.309541 -0.03169,-0.355124 -0.323433,-0.646864"
       id="path2017" />
    <path
       style="fill:none;stroke:#000000;stroke-width:1px;stroke-linecap:butt;stroke-linejoin:miter;stroke-opacity:1"
       d="m 46.412543,59.188121 c -0.539054,0.70077 -1.162289,1.344189 -1.617162,2.10231 -0.07198,0.119965 0.923154,1.570019 0.970297,1.617162 0.361645,0.361645 1.058958,0.735525 1.455446,1.132013 0.03812,0.03812 -0.03812,0.1236 0,0.161717 0.08213,0.08213 0.652977,0.08391 0.808581,0.161716 0.191046,0.09552 0.306749,0.366216 0.485148,0.485148 0.359508,0.239672 0.753925,0.457821 1.132014,0.646865 0.140288,0.07014 3.43115,0.05766 3.719472,0 0.190584,-0.03812 0.323432,-0.215622 0.485148,-0.323432 0.260153,-0.173435 0.267383,-2.108743 0.161716,-2.425743 -0.07714,-0.23141 -0.248475,-0.06315 -0.161716,-0.323432 0.265835,-0.797505 0.992424,-1.176267 1.29373,-1.778878 0.186275,-0.37255 0.25566,-0.626065 0.485148,-0.970297 0.258441,-0.387662 0.812868,-0.489436 1.132013,-0.808581 0.07623,-0.07623 -0.04821,-0.227004 0,-0.323433 0.03409,-0.06818 0.127624,-0.09353 0.161717,-0.161716 0.256396,-0.512792 -0.858022,-1.828318 -1.132014,-2.10231 -0.03812,-0.03812 -0.123599,0.03812 -0.161716,0 -0.115361,-0.115362 -0.281214,-0.745254 -0.323432,-0.808581 -0.06686,-0.100292 -0.256571,-0.06142 -0.323433,-0.161716 -0.0598,-0.0897 0.03409,-0.221154 0,-0.323433 -0.264648,-0.793945 -0.485148,-0.684221 -0.485148,-1.617161"
       id="path2019" />
    <path
       style="fill:none;stroke:#000000;stroke-width:1px;stroke-linecap:butt;stroke-linejoin:miter;stroke-opacity:1"
       d="m 52.719474,65.656768 c 0.215622,0.05391 0.448071,0.06232 0.646865,0.161716 0.204556,0.102279 0.268183,0.412827 0.485148,0.485149 0.328894,0.109631 0.83127,0.244553 1.132013,0.485148 1.817399,1.453919 -1.088316,-0.301583 0.808581,0.646865 0.740112,0.370056 -0.686229,-0.06703 0.485149,0.323433 0.595335,0.198445 1.635772,0 2.264026,0 0.42651,0 2.978971,0.09364 3.234324,-0.161717 0.03812,-0.03812 -0.04821,-0.137609 0,-0.161716 0.09643,-0.04821 0.233728,0.0598 0.323432,0 0.590903,-0.393935 -0.173395,-0.236735 0.323433,-0.485148 0.404495,-0.202248 0.8236,-0.853641 0.970297,-1.29373 0.167757,-0.503272 -0.112205,-1.356422 -0.323433,-1.778878 -0.16986,-0.339721 0,-2.211064 0,-2.587459 0,-0.36276 0.158449,-1.138548 0,-1.455445 -0.05443,-0.108859 -0.444806,-0.606873 -0.485148,-0.808581 -0.03664,-0.183177 0.131621,-0.549086 -0.161716,-0.646865 -0.153418,-0.05114 -0.350593,0.0897 -0.485149,0 -0.352608,-0.235072 -0.469578,-0.315647 -0.808581,-0.485148 -0.303564,-0.151783 -3.268006,0 -3.881188,0"
       id="path2021" />
    <path
       style="fill:none;stroke:#000000;stroke-width:1px;stroke-linecap:butt;stroke-linejoin:miter;stroke-opacity:1"
       d="m 97.191423,40.590761 c -0.889689,-0.399966 -1.224975,0.278884 -1.455446,0.970297 -0.355756,1.067268 0.197643,-0.107779 0,0.485148 -0.09416,0.282469 -0.406147,0.409861 -0.485148,0.646865 -0.03262,0.09785 -0.252469,1.526409 -0.161716,1.617162 0.388373,0.388373 1.043539,0.234959 1.455445,0.646864 0.2711,0.2711 0.428788,1.132014 0.808581,1.132014 0.727916,0 1.900706,0.228917 2.587459,0 0.850522,-0.283506 2.422222,-0.478114 2.749172,-1.132014 0.54663,-1.093246 1.1164,-2.796024 0.64687,-4.20462 -0.0341,-0.102278 0.0482,-0.227004 0,-0.323433 -0.0241,-0.04821 -0.1236,0.03812 -0.16172,0 -0.3346,-0.334596 0.51131,0.01308 -0.16171,-0.323432 -0.0376,-0.01882 -5.323893,-0.329805 -5.336639,-0.323432 -0.221453,0.110726 -0.477771,0.793827 -0.485148,0.808581 z"
       id="path2023" />
    <path
       style="fill:none;stroke:#000000;stroke-width:1px;stroke-linecap:butt;stroke-linejoin:miter;stroke-opacity:1"
       d="m 100.9109,42.854787 c -0.26953,-0.05391 -0.53746,-0.116529 -0.80859,-0.161716 -0.203729,-0.03396 -0.280841,0.527735 -0.161712,0.646865 0.173052,0.173051 1.783532,0.463624 0.970302,-0.485149 -0.20456,-0.238649 -0.52745,-0.34458 -0.80859,-0.485148 -0.183945,-0.09197 -1.263838,1.132013 0.48515,1.132013"
       id="path2025" />
    <path
       style="fill:none;stroke:#000000;stroke-width:1px;stroke-linecap:butt;stroke-linejoin:miter;stroke-opacity:1"
       d="m 62.745877,58.864689 c 0.452263,0.03157 1.039884,-0.115325 1.455446,0.161716 0.414526,0.276351 0.161716,2.125211 0.161716,2.587459 0,0.06659 -0.04281,0.442341 0,0.485148 0.238282,0.238282 0.873538,-0.265377 0.970297,-0.323432 0.786405,-0.471843 1.391211,-1.048282 2.10231,-1.617162 0.05766,-0.397258 0.343314,-0.06716 0.485149,-0.161716 0.49315,-0.328767 1.02657,-0.759411 1.293729,-1.293729 0.100091,-0.200183 0.162053,-0.593184 0.485149,-0.808581 0.384762,-0.256508 0.560293,-0.07972 0.970297,-0.161716 1.034061,-0.206813 2.930384,-0.656612 3.881188,-1.132014 0.255104,-0.127552 2.062326,-1.335491 2.10231,-1.455445 0.348432,-1.045296 0.490616,-2.025553 1.455446,-2.749175 0.676473,-0.507355 1.659459,-0.965322 2.425743,-1.29373 0.348085,-0.149179 1.438858,-0.306845 1.778878,-0.646864 0.08523,-0.08523 0.06529,-0.251111 0.161716,-0.323433 0.136371,-0.102278 0.338977,-0.07401 0.485148,-0.161716 0.361546,-0.216927 0.542661,-0.542661 0.808581,-0.808581 0.312363,-0.312362 0.837836,-0.352687 1.132013,-0.646865 0.289921,-0.28992 1.339361,-1.384991 1.455446,-1.617161 0.277002,-0.554004 0.862217,-1.023933 1.293729,-1.455446 0.279308,-0.279308 0.183372,-0.528459 0.323433,-0.808581 0.05391,-0.107811 0.269527,-0.05391 0.323432,-0.161716 0.203573,-0.407146 0.600811,-0.878188 0.808581,-1.293729 0.05391,-0.107811 0.269527,-0.05391 0.323432,-0.161717 0.04821,-0.09643 -0.04821,-0.227003 0,-0.323432 0.02411,-0.04821 0.1236,0.03812 0.161717,0 0.160401,-0.160402 0.161716,-1.296215 0.161716,-1.617162 0,-0.413308 0.215239,-1.778878 -0.323433,-1.778878"
       id="path2027" />
    <path
       style="fill:none;stroke:#000000;stroke-width:1px;stroke-linecap:butt;stroke-linejoin:miter;stroke-opacity:1"
       d="m 62.745877,58.864689 c 0.979858,0.06694 0.986084,-1.1478 1.455446,-1.617162 0.191566,-0.191566 0.590416,-0.321525 0.808581,-0.485149 0.154383,-0.115787 0.715904,-0.461511 0.80858,-0.646864 0.02411,-0.04821 -0.03812,-0.1236 0,-0.161716 0.130369,-0.130369 1.106406,-0.187324 1.132014,-0.161717 0.196967,0.196968 0.07575,0.361308 0.323432,0.485149 0.432733,0.216367 1.723288,0.02779 2.10231,-0.161716 0.191046,-0.09552 0.30675,-0.366216 0.485149,-0.485149 0.202847,-0.135231 0.523622,-0.238663 0.646865,-0.485148 0.180546,-0.361093 -0.270585,-1.346577 0,-1.617162 0.497978,-0.497979 2.635053,0.02853 3.396039,-0.161716 0.44119,-0.110298 1.039007,-0.318573 1.455446,-0.485149 0.141562,-0.05662 0.187061,-0.255247 0.323432,-0.323432 0.08063,-0.04031 0.630317,-0.145169 0.646865,-0.161716 0.07623,-0.07623 -0.04821,-0.227004 0,-0.323433 0.02411,-0.04821 0.116864,0.0299 0.161716,0 0.126861,-0.08457 0.238859,-0.196571 0.323433,-0.323432 0.234258,-0.351388 0.261244,-2.071217 0.646864,-2.264027 0.306464,-0.153231 0.784956,-0.398384 1.132013,-0.485148 0.123455,-0.03086 0.562541,0.08432 0.646865,0 0.03812,-0.03812 -0.03812,-0.123599 0,-0.161716 0.117832,-0.117832 2.026632,-0.8516 2.264027,-0.970297 0.673024,-0.336512 -0.172881,0.01116 0.161716,-0.323433 0.560721,-0.56072 1.434214,-0.949065 1.940594,-1.455445 0.30255,-0.30255 0.747868,-1.091538 1.293729,-1.455446 0.100293,-0.06686 0.238201,-0.07648 0.323433,-0.161716 0.03812,-0.03812 -0.04821,-0.137609 0,-0.161716 0.137769,-0.06888 0.522725,-0.03758 0.646864,-0.161716 0.334597,-0.334597 -0.511307,0.01308 0.161717,-0.323433 0.511552,-0.255776 0.929308,-0.575694 1.455445,-0.970297 0.167021,-0.125265 0.299359,-0.392253 0.485149,-0.485148 0.228461,-0.114231 0.328655,-0.0052 0.485148,-0.161717 0.04344,-0.04344 0.781492,-2.533281 0.970297,-2.910891"
       id="path2029" />
    <path
       style="fill:none;stroke:#000000;stroke-width:1px;stroke-linecap:butt;stroke-linejoin:miter;stroke-opacity:1"
       d="m 63.554458,66.303633 c 1.331891,-0.585395 2.810067,-0.667162 4.204621,-1.132013 0.473562,-0.157854 0.74415,-0.550006 1.132013,-0.808581 0.14075,-0.09383 0.793445,-0.08592 0.970297,-0.161716 0.709715,-0.304164 2.503144,-1.364218 2.749175,-2.102311 0.291771,-0.875312 -0.224673,-2.0122 0,-2.910891 0.216222,-0.86489 0.808581,-0.965781 0.808581,-1.940594"
       id="path2031" />
    <path
       style="fill:none;stroke:#000000;stroke-width:1px;stroke-linecap:butt;stroke-linejoin:miter;stroke-opacity:1"
       d="m 72.287132,62.907593 c 0.215621,-0.05391 0.448071,-0.06232 0.646864,-0.161716 0.515735,-0.257867 1.409233,-1.028049 1.940594,-1.293729 0.09643,-0.04821 0.218841,0.02615 0.323433,0 0.233874,-0.05847 0.418163,-0.247199 0.646864,-0.323433 1.005522,-0.335173 0.472117,0.03756 1.778878,-0.485148 0.400513,0.08965 0.405793,-0.364613 0.646865,-0.485149 0.881718,-0.440859 2.225478,-0.569767 2.749175,-1.617162 0.12152,-0.243039 0.01819,-1.113819 -0.161716,-1.293729 -0.05632,-0.05632 -1.014753,-0.440693 -0.808581,-0.646865 0.0652,-0.0652 0.401296,-0.105814 0.485149,-0.161716 0.58531,-0.390207 1.17704,-0.770911 1.778878,-1.132013 0.543568,-0.326141 0.372229,0.0038 0.80858,-0.323433 0.521332,-0.390998 1.008613,-0.827738 1.617162,-1.132013 0.197395,-0.0987 0.678384,-0.193235 0.808581,-0.323432 0.334597,-0.334597 -0.511308,0.01308 0.161716,-0.323432 0.428133,-0.214067 1.132014,-0.414456 1.132014,-0.970298 0,-0.313406 -0.0371,-0.397631 -0.161717,-0.646864 -0.181761,-0.363524 0.223745,-1.119828 0,-1.455446 -0.228011,-0.342017 -1.569217,-1.778878 -1.617161,-1.778878"
       id="path2033" />
    <path
       style="fill:none;stroke:#000000;stroke-width:1px;stroke-linecap:butt;stroke-linejoin:miter;stroke-opacity:1"
       d="m 77.785482,53.528055 c 1.848375,-0.09441 1.940594,1.266466 1.940594,2.749175"
       id="path2035" />
    <path
       style="fill:none;stroke:#000000;stroke-width:1px;stroke-linecap:butt;stroke-linejoin:miter;stroke-opacity:1"
       d="m 86.841588,51.264028 c 1.023051,0.29528 0.561425,0.713981 0.80858,1.455446 0.311769,0.935307 0.161717,2.179766 0.161717,3.234324 0,1.110817 4.840928,0.07558 5.660066,0.485148 0.09021,0.0451 0.603109,0.441394 0.646865,0.485149 0.07476,0.07475 -0.04882,0.387508 0,0.485148 0.08692,0.17384 0.26197,0.300764 0.323432,0.485149 0.05114,0.153417 -0.03922,0.32826 0,0.485148 0.14407,0.576282 0.601984,0.646865 1.132013,0.646865 0.219577,0 0.782044,0.09413 0.970297,0 0.136371,-0.06819 0.187062,-0.255247 0.323433,-0.323432 0.475956,-0.237979 1.38109,-0.249077 1.778878,-0.646865 0.163057,-0.163058 0.289378,-0.451095 0.485148,-0.646865 0.198058,-0.198058 0.474751,-0.226977 0.646865,-0.485148 0.06934,-0.104007 0.144382,-0.620864 0.161716,-0.646865 0.06686,-0.100292 0.238202,-0.07648 0.323432,-0.161716 0.0678,-0.06777 0.11271,-0.387139 0.16172,-0.485149 0.29651,-0.593025 1.37279,-0.627099 1.94059,-0.485148 2.00183,0.500458 2.51443,1.737166 2.91089,3.719472 0.0786,0.393006 -0.16727,0.964739 0.16172,1.293729 0.0381,0.03812 0.1236,-0.03812 0.16171,0 0.12103,0.121031 0.0651,0.517691 0.32344,0.646865 0.45396,0.226984 0.81838,-0.166619 1.13201,-0.323432 0.62237,-0.311185 2.00982,0.207961 2.74917,-0.161717 0.2166,-0.108297 0.22408,-0.385794 0.32344,-0.485148 0.20621,-0.206208 0.32343,-0.07202 0.32343,-0.485149"
       id="path2037" />
    <path
       style="fill:none;stroke:#000000;stroke-width:1px;stroke-linecap:butt;stroke-linejoin:miter;stroke-opacity:1"
       d="m 48.67657,71.155118 c 1.544977,-0.286691 4.059329,0.126088 5.49835,-0.161716 0.74916,-0.149832 1.948389,-0.361912 2.749175,-0.161716 0.649452,0.162363 0.546272,0.384556 0.808581,0.646865 0.148261,0.148261 1.955035,0.02455 2.10231,0 0.239822,-0.03997 1.277416,-0.468836 1.455445,-0.646865 0.170464,-0.170464 0.178789,-0.454007 0.323433,-0.646865 1.81259,-2.416787 -1.05431,-1.216026 -1.455446,-1.617162 -0.332642,-0.332642 0.570539,-0.732255 0.646865,-0.80858 0.03812,-0.03812 -0.04764,-0.136495 0,-0.161717 0.895092,-0.473872 1.832783,-0.862486 2.749175,-1.293729"
       id="path2039" />
    <path
       style="fill:none;stroke:#000000;stroke-width:1px;stroke-linecap:butt;stroke-linejoin:miter;stroke-opacity:1"
       d="m 46.735975,64.848187 c 0.378628,-0.09466 0.656962,-0.313335 0.970297,0 1.003291,1.003291 0.333026,3.376854 -0.161716,4.366337 -0.183856,0.367712 -0.959919,0.535595 -1.293729,0.646865 -0.114351,0.03812 -0.204108,0.178762 -0.323432,0.161716 -0.660072,-0.0943 -1.29373,-0.323432 -1.940595,-0.485148"
       id="path2041" />
    <path
       style="fill:none;stroke:#000000;stroke-width:1px;stroke-linecap:butt;stroke-linejoin:miter;stroke-opacity:1"
       d="m 48.67657,71.155118 c 0.05391,-0.646865 0.06992,-1.298011 0.161716,-1.940594 0.08761,-0.6133 0.807031,-0.803932 0.970297,-1.293729 0.157332,-0.471996 0.430818,-1.347422 0.970297,-1.617162 0.153661,-0.07683 0.574847,0.0897 0.646865,0.161716 0.03812,0.03812 -0.04571,0.190286 0,0.161716 0.457116,-0.285698 0.862486,-0.646865 1.293729,-0.970297"
       id="path2043" />
    <path
       style="fill:none;stroke:#000000;stroke-width:1px;stroke-linecap:butt;stroke-linejoin:miter;stroke-opacity:1"
       d="m 52.719474,65.656768 c -0.161716,0.431243 -0.385237,0.844129 -0.485149,1.29373 -0.0596,0.268201 1.838632,1.455445 2.102311,1.455445 0.539054,0 1.078108,0 1.617162,0 0.215621,0 0.862486,0 0.646864,0 -0.353607,0 -0.919785,0.22241 -1.132013,0.646865 -0.177058,0.354116 0.153424,0.655157 -0.161716,0.970297"
       id="path2045" />
    <path
       style="fill:none;stroke:#000000;stroke-width:1px;stroke-linecap:butt;stroke-linejoin:miter;stroke-opacity:1"
       d="m 55.306933,70.023105 c -2.515984,5.007441 2.479956,0.934771 3.234323,1.940594 0.348427,0.46457 0.844284,1.833485 0.646865,2.425743 -0.170598,0.511795 -0.361342,0.11373 -0.485148,0.485148 -0.03409,0.102279 0.02615,0.218841 0,0.323433 -0.08574,0.34294 -0.313386,0.389219 -0.485149,0.646864 -0.395814,0.593721 -0.808581,1.439478 -0.808581,2.102311"
       id="path2047" />
    <path
       style="fill:none;stroke:#000000;stroke-width:1px;stroke-linecap:butt;stroke-linejoin:miter;stroke-opacity:1"
       d="m 58.864689,74.712874 c 1.117945,-0.447042 2.11158,-1.138193 3.072607,-1.778878 0.0897,-0.0598 0.247199,0.07623 0.323432,0 0.03812,-0.03812 -0.03812,-0.123599 0,-0.161716 0.42107,-0.42107 0.645075,1.132013 1.29373,1.132013 1.414957,0 2.773241,0.161716 4.204621,0.161716 0.39898,0 2.236067,-0.175695 2.587458,0 0.427151,0.213576 1.261874,2.168459 1.455446,2.749176 0.05265,0.157959 0.471573,1.360419 0.485149,1.455445 0.102292,0.716051 0,1.535906 0,2.264027 0,0.399342 0.611693,0.646864 0.161716,0.646864"
       id="path2049" />
    <path
       style="fill:none;stroke:#000000;stroke-width:1px;stroke-linecap:butt;stroke-linejoin:miter;stroke-opacity:1"
       d="m 71.801983,75.521455 c 0.842471,-0.212637 2.62235,-0.393215 3.072607,-1.293729 0.118527,-0.237054 0.0072,-0.48874 0.323433,-0.646865 0.31498,-0.15749 2.011447,0 2.425742,0 0.683082,0 0.751394,-0.123591 1.29373,-0.485149 0.250119,-0.166746 0.684449,-0.294583 0.970297,-0.485148 0.373191,-0.248794 0.597106,-0.721503 0.970297,-0.970297 0.662024,-0.441349 1.37688,-0.891732 1.940594,-1.455446 0.228371,-0.228371 0.206368,-0.599495 0.485149,-0.808581 0.251455,-0.188592 0.586323,-0.262891 0.808581,-0.485148 0.867327,-0.867327 1.6409,-1.96908 2.425742,-2.910891 0.371951,-0.446342 0.46722,-1.000298 0.808581,-1.455446 0.03234,-0.04312 0.107811,0 0.161716,0 0.107811,-0.161716 0.25125,-0.304691 0.323433,-0.485149 0.04004,-0.100099 -0.03409,-0.221154 0,-0.323432 0.0089,-0.0266 0.562945,-0.541966 0.646864,-0.646865 0.151097,-0.18887 2.091399,-2.015996 2.264027,-2.10231 0.165835,-0.08292 0.538147,-0.214715 0.646865,-0.323432 0.107134,-0.107135 0.323432,-0.812908 0.323432,-0.970297 0,-0.720153 0.358751,-0.985174 0.485148,-1.617162 0.03172,-0.158576 -0.07232,-0.340505 0,-0.485149 0.03006,-0.06012 0.606073,-0.364224 0.323433,-0.646864 -0.118975,-0.118975 -0.291856,0.130139 -0.323433,0.161716"
       id="path2051" />
    <path
       style="fill:none;stroke:#000000;stroke-width:1px;stroke-linecap:butt;stroke-linejoin:miter;stroke-opacity:1"
       d="m 80.858089,59.67327 c 0.35798,-0.138217 0.769194,0.103662 1.132013,0 0.942774,-0.269364 1.633984,-0.893645 2.587459,-1.132014 0.26148,-0.06537 0.541763,0.03812 0.808581,0 1.104112,-0.15773 -0.02413,-0.115253 0.808581,-0.323432 0.613523,-0.153381 1.510995,-0.126327 2.10231,-0.323432 0.577161,-0.192387 1.04085,-0.578056 1.617162,-0.808581 0.247875,-0.09915 0.605408,0.04146 0.808581,-0.161716 0.03812,-0.03812 -0.03812,-0.1236 0,-0.161717 0.25981,-0.259809 0.43409,0.663885 1.455445,0.323433"
       id="path2053" />
    <path
       style="fill:#00d76b;fill-opacity:1;stroke-width:0.161716"
       d="m 71.20177,74.228059 c -0.314266,-0.521789 -0.543347,-0.728419 -0.808581,-0.729337 -0.203546,-7.11e-4 -1.787728,-0.03177 -3.520404,-0.06903 l -3.150319,-0.06776 -0.463551,-0.577829 c -0.610077,-0.760479 -1.066308,-0.746737 -2.291916,0.06903 -0.533663,0.35521 -1.01625,0.646067 -1.072415,0.64635 -0.05616,2.83e-4 -0.209926,-0.32696 -0.341693,-0.727208 l -0.239576,-0.727723 h 0.392572 c 0.215915,0 0.749237,-0.153432 1.18516,-0.340961 0.645875,-0.277849 0.882184,-0.499719 1.276623,-1.198628 0.669406,-1.186121 0.739962,-1.559 0.379279,-2.004424 -0.296077,-0.36564 -0.293762,-0.376398 0.192195,-0.893244 0.598442,-0.636481 1.352808,-0.942066 3.662665,-1.483704 1.19785,-0.280884 1.922084,-0.541923 2.235722,-0.805831 0.255155,-0.214699 0.707677,-0.435192 1.005604,-0.489984 0.519701,-0.09558 1.73142,-0.69711 2.239706,-1.111854 0.133416,-0.108862 0.488743,-0.244419 0.789615,-0.301237 0.300872,-0.05682 0.902525,-0.358696 1.337006,-0.67084 0.84168,-0.604686 1.571387,-0.912375 3.129155,-1.319441 0.533663,-0.139453 1.115841,-0.382372 1.293729,-0.53982 0.177888,-0.157447 0.783048,-0.469686 1.344798,-0.693864 0.83367,-0.332692 1.03745,-0.365683 1.108886,-0.179522 0.16215,0.422556 1.351086,0.269069 2.617687,-0.337933 0.65226,-0.312587 1.433337,-0.566007 1.744518,-0.566007 0.309903,0 0.71166,-0.07931 0.892793,-0.176254 0.181134,-0.09694 0.797461,-0.242549 1.369617,-0.323576 0.572155,-0.08103 1.408363,-0.333843 1.85824,-0.561813 0.735161,-0.372534 1.961698,-0.567623 2.182225,-0.347097 0.04678,0.04678 -0.02825,0.437458 -0.166719,0.868181 -0.138471,0.430723 -0.289573,0.978407 -0.33578,1.217074 -0.04621,0.238668 -0.222457,0.477882 -0.391668,0.531587 -0.461776,0.146562 -3.411065,3.051424 -3.411065,3.359682 0,0.147197 -0.09476,0.325825 -0.210577,0.396953 -0.115818,0.07113 -0.4251,0.506492 -0.687294,0.967477 -0.669922,1.177845 -2.419892,3.250331 -3.066816,3.632026 -0.2988,0.176297 -0.685735,0.561994 -0.859855,0.857105 -0.17412,0.295112 -0.669854,0.774027 -1.101631,1.064257 -0.431776,0.29023 -1.039751,0.76015 -1.351055,1.044266 -1.187341,1.083646 -1.71364,1.287304 -3.557132,1.376476 l -1.697395,0.08211 -0.282638,0.601631 c -0.241134,0.513284 -0.407455,0.636955 -1.132637,0.842192 -1.691278,0.478654 -1.61431,0.490086 -2.097078,-0.311476 z"
       id="path6035" />
    <path
       style="fill:#00d76b;fill-opacity:1;stroke-width:0.161716"
       d="m 73.742577,80.986762 c -0.793956,-0.125086 -0.889439,-0.303233 -0.889439,-1.659461 0,-0.824616 -0.109088,-1.565682 -0.32125,-2.182342 -0.176687,-0.51355 -0.289167,-0.985639 -0.249955,-1.049085 0.03921,-0.06345 0.470346,-0.204661 0.958075,-0.31381 1.01479,-0.2271 1.885215,-0.751293 2.117649,-1.275307 0.146959,-0.331313 0.268949,-0.359917 1.536304,-0.360235 1.224648,-3.24e-4 1.483816,-0.05593 2.346966,-0.503657 0.533664,-0.276821 1.261386,-0.772845 1.617162,-1.102277 0.355776,-0.329432 1.035412,-0.885089 1.510303,-1.234793 0.474891,-0.349704 0.969605,-0.839104 1.099363,-1.087556 0.129758,-0.248452 0.416493,-0.534003 0.637187,-0.634558 0.439179,-0.200103 2.770795,-2.968919 3.197376,-3.796914 0.146458,-0.284276 0.448377,-0.713343 0.670931,-0.953482 0.222553,-0.240139 0.404642,-0.527628 0.404642,-0.638864 0,-0.287534 2.340945,-2.524778 2.996952,-2.86419 0.422005,-0.218342 0.589842,-0.441702 0.729104,-0.970297 0.367545,-1.395087 0.710241,-2.469763 0.835212,-2.619173 0.07068,-0.0845 0.128501,-0.28462 0.128501,-0.444719 0,-0.37312 0.305505,-0.378946 0.42403,-0.0081 0.04975,0.155652 0.146901,0.428548 0.215899,0.606436 0.069,0.177887 0.190961,0.540202 0.271025,0.805144 0.08007,0.264941 0.326295,0.57315 0.547178,0.684909 0.536982,0.271695 2.246243,0.267237 2.572039,-0.0067 0.14042,-0.118071 0.556194,-0.300407 0.923943,-0.405191 0.637851,-0.181746 2.117936,-1.407172 2.376486,-1.967593 0.57379,-1.243736 1.06366,-1.494768 2.23316,-1.144376 1.15283,0.345394 2.07981,1.980589 2.07981,3.668777 0,0.377751 0.091,0.786057 0.20214,0.907346 0.11118,0.121289 0.2827,0.362997 0.38116,0.537129 0.0984,0.174131 0.35315,0.352989 0.566,0.397461 0.32633,0.06818 0.39395,0.18998 0.43136,0.776981 0.0244,0.382867 -0.0557,0.892273 -0.17793,1.132013 -0.12225,0.239739 -0.3347,0.763365 -0.4721,1.163613 -0.85433,2.488637 -2.10594,4.693851 -2.98062,5.251557 -0.63059,0.402074 -1.6307,1.479181 -1.9374,2.086544 -0.35608,0.705178 -0.860884,1.223939 -1.101246,1.131704 -0.111493,-0.04278 -0.413029,0.09818 -0.670079,0.313256 -0.344517,0.288259 -0.755576,0.421567 -1.563858,0.50716 -0.603072,0.06386 -1.65827,0.262502 -2.344885,0.441423 -0.686614,0.178922 -1.721409,0.38008 -2.299544,0.447021 -1.456888,0.168691 -2.727131,0.483022 -3.393645,0.839784 -0.309987,0.165926 -0.655616,0.301683 -0.768067,0.301683 -0.112451,0 -0.550162,0.180141 -0.972692,0.400311 -0.42253,0.22017 -1.168484,0.582168 -1.657675,0.804441 -0.489192,0.222271 -1.032815,0.496957 -1.208051,0.610415 -0.175236,0.113457 -0.784069,0.515568 -1.352961,0.893579 -0.568892,0.378012 -1.124825,0.687294 -1.235406,0.687294 -0.110581,0 -0.629718,0.217895 -1.153639,0.484209 -1.786073,0.907883 -5.573009,1.608191 -7.259515,1.342484 z"
       id="path6074" />
    <path
       style="fill:#00d76b;fill-opacity:1;stroke-width:0.161716"
       d="m 106.04505,59.875415 c -0.097,-0.200124 -0.21565,-0.751532 -0.26376,-1.225353 -0.0904,-0.889951 -0.71562,-2.453354 -1.19891,-2.997802 -0.88158,-0.993159 -3.41819,-1.428792 -4.29654,-0.73788 -0.23436,0.184343 -0.4261,0.43126 -0.4261,0.548704 0,0.117445 -0.109159,0.255423 -0.242574,0.306621 -0.133416,0.0512 -0.242575,0.211824 -0.242575,0.356951 0,0.480037 -1.319191,1.6398 -2.10231,1.848238 -0.400248,0.106532 -0.813934,0.264317 -0.919304,0.350633 -0.10537,0.08632 -0.432845,0.133781 -0.727723,0.105476 -0.431677,-0.04143 -0.547038,-0.130236 -0.592066,-0.455753 -0.03076,-0.22236 -0.111689,-0.477063 -0.179846,-0.566007 -0.06816,-0.08894 -0.170439,-0.343647 -0.227292,-0.566006 -0.05685,-0.22236 -0.303398,-0.549835 -0.547876,-0.727723 -0.409091,-0.297663 -0.653882,-0.31931 -3.072395,-0.271704 l -2.627888,0.05173 v -1.358915 c 0,-1.85951 -0.271898,-3.127725 -0.751437,-3.504932 -0.236117,-0.185729 -0.383193,-0.474679 -0.387471,-0.761235 -0.0045,-0.299594 -0.228133,-0.713851 -0.63657,-1.179035 -0.73573,-0.837954 -0.759285,-0.758942 0.71652,-2.403426 0.582427,-0.648995 1.058958,-1.282137 1.058958,-1.406981 0,-0.124843 0.09167,-0.285183 0.203716,-0.356311 0.112044,-0.07113 0.404166,-0.438605 0.64916,-0.816616 0.244993,-0.378012 0.510063,-0.687294 0.589044,-0.687294 0.293421,0 0.498674,-1.064608 0.498674,-2.586527 0,-1.313642 -0.04797,-1.611377 -0.295737,-1.835604 -0.162655,-0.147201 -0.373083,-0.267638 -0.467617,-0.267638 -0.09453,0 -0.21693,-0.179494 -0.271991,-0.398874 -0.0681,-0.271332 -0.434682,-0.594517 -1.146447,-1.010726 -0.575485,-0.336519 -1.04773,-0.65538 -1.049433,-0.708579 -0.0017,-0.0532 0.269798,-0.21508 0.603337,-0.359735 0.505975,-0.219438 1.423516,-0.271814 5.53878,-0.316168 4.164795,-0.04489 5.04246,-0.09586 5.639969,-0.327559 0.7295,-0.282881 2.215634,-0.375211 2.311074,-0.143581 0.0297,0.07195 0.46685,0.365232 0.97155,0.651739 l 0.91764,0.520921 0.41675,-0.416748 c 0.39732,-0.397322 0.40524,-0.439006 0.16979,-0.894313 -0.13583,-0.262661 -0.31889,-0.477566 -0.4068,-0.477566 -0.31763,0 -1.11616,-1.056323 -1.12084,-1.482685 -0.004,-0.324147 0.14113,-0.521686 0.58147,-0.793832 0.91568,-0.565922 1.87445,-0.578881 3.29497,-0.04453 1.09853,0.413223 1.40897,0.456476 3.29279,0.458776 l 2.07991,0.0025 0.58841,0.660896 c 0.32362,0.363493 0.7519,0.74798 0.95173,0.854417 0.57613,0.306863 1.01126,1.334913 1.01126,2.389253 0,0.509136 0.11874,1.348905 0.26388,1.866155 0.2117,0.754525 0.37156,1.00701 0.80858,1.277099 0.29958,0.185155 0.5447,0.398578 0.5447,0.474274 0,0.0757 0.14554,0.183824 0.32343,0.240283 0.43491,0.138033 0.40215,0.369258 -0.15697,1.107993 -0.25927,0.342564 -0.51663,0.828748 -0.5719,1.08041 -0.0553,0.251661 -0.20498,0.544276 -0.33268,0.650257 -0.1277,0.10598 -0.23218,0.279324 -0.23218,0.385209 0,0.105885 -0.21831,0.401678 -0.48515,0.657319 -0.26683,0.255641 -0.48515,0.588413 -0.48515,0.739493 0,0.151081 -0.11165,0.483134 -0.24812,0.737896 -0.18773,0.350445 -0.23811,0.885609 -0.20697,2.198391 0.0284,1.198841 -0.0198,1.796178 -0.15616,1.932508 -0.10853,0.108528 -0.19773,0.382892 -0.19823,0.609699 -0.002,0.706845 -0.30883,1.563453 -0.76949,2.145102 -0.27509,0.347342 -0.77314,1.562922 -1.31656,3.213314 -0.48075,1.460041 -0.9742,2.898291 -1.09656,3.196111 l -0.22247,0.541492 -1.08661,-0.102647 c -0.82322,-0.07777 -1.1989,-0.04242 -1.54982,0.145801 -0.56972,0.305584 -0.50013,0.316901 -0.70957,-0.11541 z m -5.28118,-13.404087 c 1.81855,-0.456105 2.29306,-0.795085 2.7988,-1.999379 0.34407,-0.819326 0.40821,-1.22781 0.4122,-2.625345 0.007,-2.330051 0.13957,-2.239951 -3.62998,-2.460794 -2.9136,-0.170695 -2.998765,-0.166751 -3.260247,0.150977 -0.147673,0.179438 -0.374369,0.326251 -0.503769,0.326251 -0.444148,0 -1.062312,0.651055 -1.345181,1.416755 -0.155723,0.421527 -0.345329,0.848998 -0.421347,0.949936 -0.204224,0.271169 -0.33252,2.207902 -0.162633,2.45508 0.08047,0.117074 0.424267,0.308421 0.764004,0.425217 0.401546,0.138045 0.766046,0.431396 1.041615,0.838295 0.372265,0.549678 0.521616,0.63762 1.225866,0.721819 1.417898,0.169523 1.679349,0.15265 3.080672,-0.198812 z"
       id="path6113" />
    <path
       style="fill:#00d76b;fill-opacity:1;stroke-width:0.161716"
       d="M 91.058281,34.337667 C 90.931225,34.033579 90.778476,33.314888 90.71884,32.740575 90.659203,32.166263 90.51526,31.314358 90.398965,30.847453 90.282671,30.380548 90.22657,29.707404 90.274296,29.351578 l 0.08677,-0.646956 1.070292,0.0066 c 0.947076,0.0058 1.134748,0.06167 1.630189,0.485148 0.307944,0.263217 0.689998,0.478577 0.84901,0.478577 0.159011,0 0.289112,0.0709 0.289112,0.157563 0,0.08666 0.205495,0.263829 0.456656,0.393709 0.251161,0.129881 0.660568,0.55019 0.909792,0.934021 0.547583,0.843333 1.798428,2.046807 2.349504,2.260528 0.220425,0.08548 0.750165,0.136883 1.1772,0.114218 0.618226,-0.03281 0.848684,0.03104 1.131049,0.313402 l 0.3546,0.354612 h -0.662466 c -0.364359,0 -0.980901,0.118358 -1.370096,0.263018 -0.533074,0.19814 -1.51535,0.282944 -3.982123,0.343792 l -3.274498,0.08077 z"
       id="path6152" />
    <path
       style="fill:#00d76b;fill-opacity:1;stroke-width:0.161716"
       d="m 86.113865,35.332608 c 0,-0.320946 -1.049379,-0.804993 -1.74648,-0.8056 -0.382429,-3.39e-4 -0.928221,-0.117448 -1.212871,-0.260257 -0.841806,-0.422333 -2.035251,-1.259883 -2.129805,-1.49468 -0.04829,-0.119916 0.02182,-0.5409 0.155792,-0.93552 0.154443,-0.454899 0.240376,-1.292483 0.2348,-2.288571 -0.01068,-1.906929 -0.322225,-2.872275 -1.081007,-3.349531 -0.379709,-0.238828 -0.516537,-0.445633 -0.521131,-0.78765 -0.0034,-0.255084 -0.297318,-1.110258 -0.653094,-1.900386 -0.840409,-1.866433 -0.841001,-2.083019 -0.0057,-2.083019 0.499926,0 0.683693,0.08016 0.834175,0.363861 0.364873,0.68789 1.298213,1.819535 1.649659,2.000157 0.193539,0.09947 0.622643,0.229714 0.953564,0.289438 0.330922,0.05972 0.803942,0.276684 1.051156,0.482135 1.194585,0.992778 2.856005,2.051547 3.417125,2.177622 0.382714,0.08599 0.883776,0.392019 1.294543,0.790654 0.647606,0.628481 0.670155,0.685045 0.670155,1.681082 0,0.566895 0.07495,1.28494 0.166555,1.595657 0.09161,0.310716 0.23747,1.110731 0.324144,1.77781 0.08667,0.667079 0.201752,1.449381 0.255732,1.738449 l 0.09815,0.525577 h -1.075595 c -0.756458,0 -1.263702,0.09596 -1.709575,0.323433 -0.706124,0.360237 -0.970297,0.403619 -0.970297,0.159339 z"
       id="path6191" />
    <path
       style="fill:#00d76b;fill-opacity:1;stroke-width:0.161716"
       d="m 74.632016,32.112006 c -1.545776,-0.309089 -1.808824,-0.789914 -1.790162,-3.272232 0.01127,-1.499122 -0.04668,-2.06815 -0.255401,-2.508005 -0.305731,-0.64428 -1.554246,-1.540573 -2.585553,-1.856134 l -0.669071,-0.204724 -0.109892,-1.404759 c -0.06838,-0.87409 -0.04236,-1.655545 0.06887,-2.068624 0.205191,-0.762023 0.261199,-0.774693 2.156768,-0.487919 1.267888,0.191814 1.963067,0.534187 3.599257,1.772615 0.581768,0.440338 1.108485,0.803036 1.170483,0.805995 0.541857,0.02586 1.555475,1.766956 1.738252,2.985797 0.0901,0.600846 0.151927,0.666298 0.84119,0.890547 1.172714,0.381539 1.41366,0.842932 1.414102,2.707896 l 3.71e-4,1.553685 -0.491222,0.12869 c -0.270173,0.07078 -0.702229,0.348932 -0.960124,0.618117 -0.461039,0.48122 -0.494832,0.489115 -2.015378,0.470829 -0.850567,-0.01023 -1.801184,-0.06953 -2.112488,-0.131774 z"
       id="path6230" />
    <path
       style="fill:#00d76b;fill-opacity:1;stroke-width:0.161716"
       d="m 65.980201,29.767213 c -0.69329,-0.760135 -0.902694,-1.038024 -1.338791,-1.776643 -0.685152,-1.160442 -1.919362,-2.090996 -4.402134,-3.319064 -1.979657,-0.979209 -3.056552,-1.602081 -4.577515,-2.647617 -0.605339,-0.416121 -1.296676,-0.797902 -1.536303,-0.848403 -0.239628,-0.0505 -0.581965,-0.120643 -0.760749,-0.155873 -0.178784,-0.03523 -0.453729,-0.28187 -0.610988,-0.548089 -0.15726,-0.26622 -0.520388,-0.64864 -0.806952,-0.849823 -1.353724,-0.950384 -2.159637,-2.075496 -1.486669,-2.075496 0.12115,0 0.315944,-0.200123 0.432875,-0.444719 0.202034,-0.422614 0.276107,-0.447091 1.49018,-0.492418 1.205698,-0.04501 1.351184,-0.01172 2.585827,0.591718 0.719536,0.351679 1.672109,0.748563 2.116829,0.881965 1.334443,0.400292 1.903784,0.614173 2.668317,1.002391 0.400247,0.20324 1.118349,0.484538 1.595782,0.625107 0.477433,0.140569 1.031186,0.420695 1.230564,0.622501 0.199377,0.201806 0.681422,0.548851 1.071211,0.771211 0.766394,0.437199 2.050701,1.652616 2.790343,2.64067 0.254006,0.339314 0.581481,0.660361 0.727723,0.713436 0.146243,0.05308 0.504938,0.302541 0.7971,0.554366 0.292162,0.251826 0.602891,0.457865 0.690508,0.457865 0.349887,0 1.477015,0.850689 1.775292,1.339887 0.174332,0.285917 0.318838,0.738166 0.321123,1.004998 0.0023,0.266831 0.15263,0.812487 0.334096,1.212568 l 0.329938,0.727419 -0.423366,0.364165 c -0.389684,0.335192 -0.580254,0.363884 -2.395371,0.360638 l -1.972006,-0.0035 -0.646864,-0.709234 z"
       id="path6269" />
    <path
       style="fill:#00d76b;fill-opacity:1;stroke-width:0.161716"
       d="m 54.860339,28.867773 c -0.227151,-0.178677 -0.61984,-0.325169 -0.872643,-0.325536 -0.252803,-3.68e-4 -0.859889,-0.248377 -1.34908,-0.55113 -0.489192,-0.302754 -2.454043,-1.329992 -4.366337,-2.282751 -1.912294,-0.952759 -3.887332,-1.941879 -4.388973,-2.198045 -0.501642,-0.256166 -1.055472,-0.465756 -1.230734,-0.465756 -0.348646,0 -1.457092,-0.682971 -1.778808,-1.096016 -0.11118,-0.142742 -0.202145,-0.597802 -0.202145,-1.011245 0,-1.12384 0.241033,-1.200874 3.881188,-1.24043 4.636305,-0.05038 4.545322,-0.05418 4.80006,0.200556 0.129934,0.129934 0.285899,0.236244 0.346588,0.236244 0.06069,0 0.514102,0.382055 1.007584,0.84901 1.016287,0.961658 3.586341,2.54703 4.129002,2.54703 0.197688,0 0.659045,0.250319 1.025237,0.556264 0.366193,0.305945 0.827904,0.606232 1.026028,0.667304 0.198122,0.06107 0.724082,0.450592 1.168802,0.8656 0.444719,0.415007 1.051069,0.853748 1.347443,0.974979 0.501196,0.205014 0.531529,0.259511 0.433948,0.779662 -0.0577,0.307582 -0.172865,0.641946 -0.255916,0.743029 -0.08305,0.101084 -0.278326,0.33995 -0.433948,0.530813 -0.247841,0.303968 -0.505736,0.359323 -2.07862,0.446155 -1.639326,0.0905 -1.831633,0.07085 -2.208676,-0.225737 z"
       id="path6308" />
    <path
       style="fill:#00d76b;fill-opacity:1;stroke-width:0.161716"
       d="m 44.589776,30.761308 c -0.242693,-0.06957 -1.469983,-0.267525 -2.727312,-0.43991 -1.257329,-0.172386 -2.626237,-0.389665 -3.042017,-0.482844 -0.493838,-0.110671 -2.238523,-0.131444 -5.031605,-0.05991 -2.539691,0.06505 -4.273054,0.04981 -4.269272,-0.03754 0.0035,-0.08088 0.625494,-0.692839 1.382206,-1.359918 0.768856,-0.677786 1.685575,-1.680074 2.077915,-2.271874 0.859778,-1.296877 1.671006,-2.030555 2.474458,-2.237909 1.29043,-0.333033 3.068399,-0.251958 4.813179,0.21948 0.44472,0.120163 1.385162,0.333361 2.089872,0.473774 1.367685,0.27251 2.349861,0.701372 3.004188,1.311762 0.22236,0.207429 0.695379,0.427596 1.051155,0.489261 0.355776,0.06166 0.97434,0.316912 1.374588,0.567215 0.400247,0.250303 0.927846,0.504524 1.172442,0.564935 0.244596,0.06041 0.444719,0.167862 0.444719,0.23878 0,0.07092 0.477516,0.352398 1.061145,0.625512 1.049612,0.491172 1.060597,0.503067 1.010726,1.094326 -0.04241,0.502817 -0.127473,0.622358 -0.535567,0.752647 -0.266832,0.08519 -0.604967,0.259014 -0.751413,0.386276 -0.20197,0.175516 -0.856866,0.238756 -2.712205,0.261902 -1.345268,0.01678 -2.644509,-0.0264 -2.887202,-0.09597 z"
       id="path6347" />
    <path
       style="fill:#00d76b;fill-opacity:1;stroke-width:0.161716"
       d="m 23.853136,39.060182 c -0.133416,-0.08937 -0.442698,-0.163603 -0.687294,-0.164965 -0.534003,-0.003 -0.538437,-0.05611 -0.104303,-1.24971 0.212853,-0.585213 0.591601,-1.187664 1.010726,-1.6077 1.465688,-1.46887 1.716813,-1.788888 2.108019,-2.686328 0.344128,-0.789439 0.484115,-0.947889 0.913274,-1.03372 0.278767,-0.05575 0.544766,-0.200181 0.591109,-0.32095 0.0665,-0.173302 0.668544,-0.218989 2.856563,-0.216778 3.093423,0.0031 5.420013,0.201011 6.69392,0.569338 0.762507,0.220465 0.84901,0.291416 0.84901,0.696372 0,0.391924 -0.127331,0.511756 -0.973549,0.916211 -0.535452,0.255922 -1.095903,0.600513 -1.245447,0.765757 -0.149543,0.165243 -0.773838,0.564205 -1.387321,0.886582 -0.613483,0.322376 -1.152402,0.682502 -1.197598,0.800281 -0.0452,0.117778 -0.19315,0.214142 -0.328788,0.214142 -0.135637,0 -0.500648,0.157002 -0.811134,0.348894 -0.310487,0.191891 -1.119572,0.54219 -1.797966,0.778443 -0.678395,0.236252 -1.415376,0.531914 -1.637735,0.657026 -0.22236,0.125112 -0.658994,0.333214 -0.970297,0.46245 -0.676158,0.280702 -3.534768,0.416706 -3.881189,0.184655 z"
       id="path6386" />
    <path
       style="fill:#00d76b;fill-opacity:1;stroke-width:0.161716"
       d="m 35.026262,41.417065 c -0.102635,-0.123667 -0.552687,-0.382332 -1.000116,-0.574811 -0.677539,-0.29147 -0.994279,-0.332887 -1.895074,-0.247801 l -1.081566,0.10216 -0.283003,-0.510751 C 30.610851,39.904949 30.4835,39.547145 30.4835,39.390742 c 0,-0.375991 0.656554,-0.659717 1.526611,-0.659717 0.475539,0 0.732913,-0.07844 0.795896,-0.242575 0.06003,-0.156441 0.310218,-0.242577 0.704595,-0.242583 0.710071,-10e-6 2.95492,-1.191676 3.869179,-2.053934 0.311131,-0.293434 0.636798,-0.533516 0.723705,-0.533516 0.08691,0 0.45217,-0.142121 0.811695,-0.315824 0.539997,-0.260898 1.02379,-0.318583 2.781792,-0.331686 3.065293,-0.02285 3.341304,-0.01277 3.338077,0.121933 -0.0045,0.188145 -1.577971,1.172442 -1.874227,1.172442 -0.834626,0 -3.374972,2.069916 -4.402706,3.587397 -0.282114,0.416551 -0.658323,0.803509 -0.83602,0.859908 -0.177697,0.0564 -0.323086,0.164629 -0.323086,0.240513 0,0.07588 -0.217482,0.185736 -0.483294,0.244118 -0.265811,0.05838 -0.524809,0.173323 -0.57555,0.255424 -0.14406,0.233094 -1.305866,0.175095 -1.513905,-0.07558 z"
       id="path6425" />
    <path
       style="fill:#00d76b;fill-opacity:1;stroke-width:0.161716"
       d="m 42.492218,59.656141 c -0.154502,-0.06909 -0.157995,-0.169903 -0.01514,-0.436831 0.357369,-0.667752 0.437723,-1.481092 0.281851,-2.852897 -0.211574,-1.862025 -0.27587,-2.110635 -0.54586,-2.110635 -0.127194,0 -0.425534,-0.254703 -0.662977,-0.566007 -0.237443,-0.311304 -0.527332,-0.566007 -0.644197,-0.566007 -0.116866,0 -0.256713,-0.139355 -0.310771,-0.309679 -0.162825,-0.513016 0.08313,-1.127521 0.619222,-1.547074 0.324892,-0.254266 0.681338,-0.815692 0.994405,-1.566252 0.642997,-1.541546 1.035668,-1.779694 3.138285,-1.903317 l 1.550654,-0.09117 v -0.484467 c 0,-0.468251 -0.03098,-0.488337 -0.925629,-0.60009 -1.022943,-0.127779 -1.665932,-0.405344 -2.131995,-0.920338 -0.169228,-0.186994 -0.405566,-0.339989 -0.525196,-0.339989 -0.419569,0 -0.211817,-0.321471 0.362952,-0.561625 0.319254,-0.133393 0.787073,-0.416384 1.039597,-0.628869 0.252524,-0.212485 0.711726,-0.433723 1.02045,-0.491639 0.308723,-0.05792 0.65031,-0.212537 0.759082,-0.343599 0.108772,-0.131062 0.300299,-0.238295 0.425615,-0.238295 0.125317,0 0.269737,-0.109158 0.320933,-0.242574 0.0512,-0.133416 0.237142,-0.242574 0.413212,-0.242574 0.176071,0 0.768656,-0.419494 1.316857,-0.932209 1.844677,-1.725269 1.636955,-1.935862 1.688913,1.712259 0.02492,1.750098 0.07941,3.293602 0.121079,3.43001 0.04167,0.136407 0.312364,0.383414 0.601546,0.548904 0.289182,0.16549 0.678549,0.438314 0.86526,0.606275 0.186711,0.167962 0.777979,0.386934 1.31393,0.486604 1.35851,0.252642 1.557233,0.605274 1.40417,2.491691 -0.09462,1.166188 -0.175853,1.454762 -0.501021,1.77993 -0.213448,0.213448 -0.476323,0.388087 -0.584168,0.388087 -0.409416,0 -3.574347,1.890898 -4.113446,2.457591 -0.110256,0.115899 -0.587394,0.629167 -1.060308,1.140594 -0.550857,0.595719 -0.98913,0.929868 -1.219626,0.929868 -0.197881,0 -0.401672,0.109159 -0.452869,0.242575 -0.0512,0.133416 -0.195169,0.242574 -0.319939,0.242574 -0.124771,0 -0.351109,0.145118 -0.502975,0.322485 -0.151866,0.177365 -0.533208,0.404884 -0.847427,0.505592 -0.314219,0.100711 -0.697922,0.29368 -0.852673,0.428822 -0.285369,0.249206 -1.654006,0.426752 -2.021798,0.262276 z"
       id="path6464" />
    <path
       style="fill:#00d76b;fill-opacity:1;stroke-width:0.161716"
       d="m 53.8582,47.344615 c -0.26314,-0.03884 -0.681188,-0.241227 -0.928996,-0.449744 -0.247807,-0.208516 -0.596496,-0.425439 -0.774864,-0.482051 -0.30818,-0.09781 -0.324305,-0.242443 -0.324305,-2.908839 0,-1.54325 0.04417,-2.92102 0.09816,-3.06171 0.0812,-0.211594 0.402591,-0.255801 1.859736,-0.255801 h 1.761576 v 0.545792 c 0,1.196102 0.167271,1.546722 0.951222,1.993871 0.976483,0.556965 1.623086,1.242428 2.071182,2.195656 0.400755,0.852521 0.358232,1.691246 -0.09408,1.855612 -0.143005,0.05197 -0.43356,0.227644 -0.645679,0.390392 -0.318288,0.244206 -0.65734,0.291672 -1.940594,0.271675 -0.855208,-0.01333 -1.77022,-0.05601 -2.03336,-0.09485 z"
       id="path6503" />
    <path
       style="fill:#00d76b;fill-opacity:1;stroke-width:0.161716"
       d="m 69.295382,46.870724 c -0.408756,-0.02883 -1.223893,-0.293654 -1.859736,-0.604206 -1.748598,-0.854031 -2.129668,-0.92783 -4.511433,-0.873698 -2.534814,0.05761 -2.803369,-0.05131 -3.493518,-1.41687 -0.489069,-0.967696 -1.179624,-1.713239 -1.940594,-2.095121 -0.723365,-0.363011 -0.803098,-0.495115 -0.806104,-1.335573 -0.0018,-0.515262 0.06992,-0.717738 0.280527,-0.791544 0.155651,-0.05455 0.517271,-0.319068 0.803598,-0.587825 l 0.520595,-0.488651 2.22858,0.267898 c 1.225719,0.147344 2.592441,0.298885 3.037161,0.336758 1.952154,0.166247 2.734665,0.421793 4.689769,1.531545 1.067327,0.605834 2.346751,1.261866 2.843165,1.457849 0.592669,0.233984 1.193216,0.650634 1.749059,1.213469 0.839093,0.849648 0.847291,0.867732 0.938227,2.070126 0.08893,1.175896 0.07995,1.216144 -0.293614,1.316121 -0.378011,0.101167 -2.749415,0.101009 -4.185682,-2.78e-4 z"
       id="path6542" />
    <path
       style="fill:#00d76b;fill-opacity:1;stroke-width:0.161716"
       d="m 49.323434,64.634059 c -0.266831,-0.164705 -0.585024,-0.420415 -0.707095,-0.568245 -0.12207,-0.14783 -0.325317,-0.268782 -0.451658,-0.268782 -0.370103,0 -1.960434,-1.280948 -2.327296,-1.874544 -0.189739,-0.307004 -0.284041,-0.634926 -0.215794,-0.750394 0.42749,-0.723274 1.403903,-1.71507 2.16554,-2.199656 1.249665,-0.795091 2.167691,-1.56617 2.41516,-2.028571 0.218707,-0.408657 1.091085,-1.048627 2.812866,-2.063498 0.995008,-0.586488 0.998644,-0.587227 1.194461,-0.242574 0.108028,0.190138 0.198994,0.509443 0.202145,0.709567 0.0032,0.200124 0.08229,0.363861 0.17586,0.363861 0.09357,0 0.246234,0.218317 0.339252,0.485149 0.09302,0.266832 0.23432,0.485148 0.314005,0.485148 0.267417,0 1.087133,1.292949 1.009041,1.591573 -0.04213,0.161096 -0.290953,0.419525 -0.552945,0.574287 -0.261992,0.154763 -0.656901,0.622217 -0.877574,1.038787 -0.220673,0.41657 -0.637888,1.037352 -0.927144,1.379516 -0.509797,0.603044 -0.525919,0.667491 -0.525919,2.10231 v 1.480194 l -1.778878,0.04267 c -1.498253,0.03594 -1.855412,-0.0046 -2.264027,-0.256796 z"
       id="path6581" />
    <path
       style="fill:#00d76b;fill-opacity:1;stroke-width:0.161716"
       d="m 55.724025,66.621643 c -0.393207,-0.31256 -0.88876,-0.611921 -1.10123,-0.665248 -0.287976,-0.07228 -0.354304,-0.163915 -0.260578,-0.360008 0.06915,-0.144678 0.151602,-0.95086 0.183223,-1.791516 0.05398,-1.435064 0.08765,-1.562812 0.55101,-2.090549 0.271435,-0.309146 0.594532,-0.803847 0.717995,-1.099335 0.123462,-0.295488 0.476249,-0.701028 0.78397,-0.9012 0.307721,-0.200172 0.643065,-0.564073 0.745209,-0.808669 0.185621,-0.444492 0.186572,-0.44472 1.85747,-0.44472 2.865975,0 3.343241,0.521606 3.282744,3.587721 -0.02286,1.158671 0.04187,2.078776 0.176486,2.50869 0.328534,1.049203 0.07107,1.472039 -1.285198,2.110685 -1.063379,0.50073 -1.206447,0.525504 -3.026164,0.524008 l -1.910016,-0.0016 z"
       id="path6620" />
    <path
       style="fill:#00d76b;fill-opacity:1;stroke-width:0.161716"
       d="m 63.88134,64.807758 c -0.06204,-0.333539 -0.13002,-1.661633 -0.151074,-2.95132 -0.02105,-1.289686 -0.0116,-1.73011 0.02101,-0.978718 0.03261,0.751391 0.137926,1.460921 0.234041,1.576733 0.431102,0.519446 1.326211,0.172167 3.056107,-1.185691 0.494727,-0.38833 0.967747,-0.707136 1.051155,-0.708459 0.281173,-0.0045 1.345405,-1.04426 1.652699,-1.614756 0.246661,-0.45793 0.425809,-0.584391 0.938218,-0.662288 0.348338,-0.05295 0.912946,-0.153277 1.254684,-0.222939 l 0.621342,-0.126658 -0.257481,0.497912 c -0.182183,0.352303 -0.25748,0.944633 -0.25748,2.025493 v 1.527582 l -0.570503,0.500908 c -0.683831,0.600412 -1.568637,1.066112 -2.340388,1.231817 -0.311304,0.06684 -0.769439,0.292125 -1.018079,0.500631 -0.24864,0.208506 -0.72166,0.44982 -1.051155,0.536254 -0.906985,0.237922 -2.784688,0.659935 -2.93631,0.659935 -0.07369,0 -0.184746,-0.272896 -0.246782,-0.606436 z"
       id="path6659" />
    <path
       style="fill:#00d76b;fill-opacity:1;stroke-width:0.161716"
       d="m 73.277118,61.186734 c -0.216857,-1.084286 -0.104861,-1.863959 0.411589,-2.865336 0.281675,-0.546157 0.586739,-0.993013 0.67792,-0.993013 0.09118,0 0.734334,-0.373264 1.429228,-0.829475 1.120501,-0.73563 1.295097,-0.918593 1.543207,-1.617162 0.237896,-0.669813 0.34293,-0.787686 0.701888,-0.787686 0.599957,0 0.95212,0.473589 1.065779,1.433266 0.05411,0.456918 0.151931,0.83076 0.217367,0.83076 0.06544,0 0.159887,0.204553 0.209889,0.454561 0.05546,0.277295 0.252537,0.528203 0.505363,0.643398 0.283809,0.129312 0.414451,0.316193 0.414451,0.592866 0,0.468097 -0.401098,0.772876 -1.633281,1.241068 -0.465823,0.176999 -1.020039,0.457967 -1.231591,0.624374 -0.211552,0.166408 -0.617733,0.348679 -0.902624,0.405047 -0.832173,0.164654 -2.102138,0.613663 -2.539435,0.897842 -0.749925,0.487342 -0.766294,0.486767 -0.86975,-0.03051 z"
       id="path6698" />
    <path
       style="fill:#00d76b;fill-opacity:1;stroke-width:0.161716"
       d="M 80.233892,55.127655 C 80.094178,54.108328 79.728427,53.497612 79.048891,53.14899 l -0.59046,-0.302925 0.738433,-0.43275 c 0.406138,-0.238013 1.344626,-0.644914 2.085529,-0.904225 0.740902,-0.25931 1.429573,-0.584269 1.530379,-0.722129 0.100806,-0.137861 0.239895,-0.250655 0.309087,-0.250655 0.06919,0 0.441597,-0.29109 0.827568,-0.646865 0.385971,-0.355776 0.798275,-0.646865 0.91623,-0.646865 0.117955,0 0.439283,0.23651 0.714061,0.525578 0.423811,0.44585 0.509839,0.677846 0.567118,1.529364 0.06513,0.968292 0.05186,1.010273 -0.375324,1.187219 -0.243565,0.100888 -0.568544,0.322327 -0.722175,0.492088 -0.153631,0.169761 -0.350325,0.308656 -0.437097,0.308656 -0.08677,0 -0.51781,0.258664 -0.957862,0.57481 -0.440052,0.316146 -0.978019,0.642458 -1.195482,0.725137 -0.217462,0.08268 -0.784977,0.399544 -1.261144,0.704144 l -0.865758,0.553819 z"
       id="path6737" />
    <path
       style="fill:#00d76b;fill-opacity:1;stroke-width:0.161716"
       d="m 81.558503,58.161932 c 0.03851,-0.680303 -0.0143,-1.013766 -0.188063,-1.187533 -0.214338,-0.214338 -0.146477,-0.299269 0.601175,-0.752394 0.463533,-0.28093 0.919751,-0.510782 1.013817,-0.510782 0.09407,0 0.50674,-0.256332 0.91705,-0.569628 0.410311,-0.313295 1.075726,-0.710957 1.478701,-0.883692 0.402975,-0.172735 0.732682,-0.377741 0.732682,-0.455569 0,-0.119886 0.223763,-0.262998 1.010726,-0.646428 0.06671,-0.0325 0.121287,0.669411 0.121287,1.559807 0,1.556308 0.01647,1.631859 0.426099,1.95407 0.234355,0.184343 0.580023,0.337383 0.768152,0.340087 0.689902,0.0099 -0.155509,0.309976 -1.351112,0.479543 -0.639556,0.0907 -1.297748,0.237125 -1.46265,0.325378 -0.164901,0.08825 -0.543167,0.160459 -0.840592,0.160459 -0.297424,0 -1.072247,0.254703 -1.721829,0.566006 -0.649581,0.311304 -1.266093,0.56614 -1.370025,0.566302 -0.128734,1.94e-4 -0.171899,-0.301216 -0.135418,-0.945626 z"
       id="path6776" />
    <path
       style="fill:#00d76b;fill-opacity:1;stroke-width:0.161716"
       d="m 54.879306,77.142233 c -0.04248,-0.04248 -0.725799,-0.265187 -1.51848,-0.494896 -1.982964,-0.574641 -3.218821,-1.265883 -4.360824,-2.439103 -0.712386,-0.731859 -1.293331,-1.144436 -2.185593,-1.552167 -1.255939,-0.573919 -2.099886,-1.348605 -2.099886,-1.927556 0,-0.286359 0.07469,-0.309733 0.693274,-0.21697 0.543467,0.0815 0.889174,0.01733 1.599865,-0.296975 0.498625,-0.220516 0.98187,-0.535454 1.073878,-0.699863 0.122825,-0.219476 0.142943,-0.03046 0.07569,0.711174 -0.0761,0.839264 -0.04969,1.010099 0.156141,1.010099 0.136253,0 0.284844,0.09671 0.330202,0.214912 0.06428,0.167524 0.674289,0.212098 2.766424,0.202146 l 2.683953,-0.01277 5.4e-5,0.516407 c 5.9e-5,0.564189 0.470328,1.021461 1.046762,1.017832 0.180334,-0.0011 0.897396,-0.183942 1.593471,-0.406237 0.696076,-0.222296 1.322851,-0.368786 1.392834,-0.325534 0.06998,0.04325 0.219883,0.409526 0.333113,0.813943 0.179835,0.642307 0.172414,0.772276 -0.05868,1.027626 -0.145501,0.160777 -0.264547,0.374325 -0.264547,0.474551 0,0.100227 -0.179708,0.447045 -0.399352,0.770707 -0.219643,0.323663 -0.488965,0.836301 -0.598493,1.139195 -0.197061,0.544961 -0.209508,0.550718 -1.190858,0.550718 -0.545443,0 -1.026474,-0.03476 -1.068957,-0.07724 z"
       id="path6815" />
    <path
       style="fill:#00d76b;fill-opacity:1;stroke-width:0.161716"
       d="m 67.254402,80.963679 c -0.167147,-0.03087 -0.373038,-0.121834 -0.457535,-0.202145 -0.0845,-0.08031 -0.285608,-0.146019 -0.446914,-0.146019 -0.161305,0 -0.419647,-0.0665 -0.574092,-0.147778 -0.154445,-0.08128 -0.686583,-0.229207 -1.182528,-0.328731 -0.495946,-0.09952 -1.175581,-0.327734 -1.510301,-0.507133 -0.334719,-0.179398 -0.984144,-0.47011 -1.443165,-0.646026 -0.459021,-0.175916 -0.980129,-0.383101 -1.158016,-0.460413 -1.133212,-0.492502 -2.035468,-0.820811 -2.255747,-0.820811 -0.230097,0 -0.231342,-0.05709 -0.01266,-0.580462 0.133393,-0.319254 0.425459,-0.797857 0.649035,-1.063563 0.223576,-0.265705 0.406502,-0.586675 0.406502,-0.713267 0,-0.126591 0.06116,-0.230166 0.135905,-0.230166 0.07475,0 0.743911,-0.365424 1.487032,-0.812052 l 1.351128,-0.812052 0.355762,0.446169 c 0.324575,0.407055 0.481293,0.455744 1.78772,0.555396 0.787577,0.06007 2.390256,0.115564 3.561508,0.123309 l 2.12955,0.01408 0.316412,0.525578 c 0.797438,1.324589 1.232819,2.761327 1.295859,4.27628 l 0.06186,1.486676 -2.096706,0.04963 c -1.153188,0.02729 -2.233463,0.02437 -2.400611,-0.0065 z"
       id="path6854" />
    <path
       style="fill:#00d76b;fill-opacity:1;stroke-width:0.161716"
       d="m 34.62062,96.000165 c -0.04762,-0.07706 0.06656,-0.277182 0.253744,-0.44472 0.187183,-0.167539 0.557174,-0.756623 0.822202,-1.309076 0.358081,-0.746422 0.69977,-1.168977 1.330084,-1.644869 0.761866,-0.575214 1.542658,-1.729723 1.542658,-2.281031 0,-0.08979 0.29109,-0.809726 0.646865,-1.599854 0.355776,-0.790128 0.646865,-1.54433 0.646865,-1.676005 0,-0.131674 0.228182,-0.52231 0.50707,-0.868079 0.278889,-0.34577 0.686566,-1.015302 0.905948,-1.487848 0.219383,-0.472547 0.728816,-1.454973 1.132073,-2.183169 0.739933,-1.336158 1.172357,-2.83312 1.176589,-4.073107 0.0042,-1.221575 0.08854,-1.334144 0.906829,-1.209958 0.398164,0.06043 0.807705,0.193635 0.910089,0.29602 0.102385,0.102385 0.354324,0.186154 0.559864,0.186154 0.500334,0 1.785387,0.615594 2.038039,0.976305 0.111406,0.159054 0.473051,0.418179 0.803655,0.575833 0.330604,0.157654 0.601098,0.389039 0.601098,0.514188 0,0.125149 0.139197,0.404505 0.309327,0.620789 0.422197,0.536737 0.178401,1.403408 -0.610472,2.170168 -0.602896,0.585997 -1.962881,2.183342 -1.962881,2.305466 0,0.03744 -0.366729,0.705384 -0.814952,1.484327 -1.185784,2.060705 -1.970176,2.993628 -3.861743,4.592994 -0.459935,0.388886 -1.012212,1.043837 -1.227282,1.455446 -0.21507,0.411609 -0.674038,1.039469 -1.019928,1.395244 -0.714619,0.735042 -2.387459,1.696261 -2.961298,1.701571 -0.211076,0.002 -0.701004,0.147498 -1.088728,0.323433 -0.74379,0.337503 -1.400995,0.41394 -1.545715,0.179778 z"
       id="path6893" />
    <path
       style="fill:#00d76b;fill-opacity:1;stroke-width:0.161716"
       d="m 29.998351,107.86205 c 0,-0.0757 0.962081,-1.40853 1.336259,-1.85116 0.292796,-0.34636 0.510643,-0.73946 1.257985,-2.26996 0.730933,-1.4969 1.359824,-2.26087 2.29591,-2.78902 0.332572,-0.18764 0.649227,-0.48154 0.703678,-0.6531 0.05445,-0.17156 0.198264,-0.4315 0.319583,-0.577645 0.121319,-0.146143 0.441877,-0.574998 0.712352,-0.953009 0.270476,-0.378012 0.584785,-0.687294 0.698466,-0.687294 0.113681,0 0.335876,-0.218689 0.493766,-0.485977 0.157891,-0.267287 0.501056,-0.596631 0.76259,-0.731875 0.261534,-0.135245 0.475517,-0.304547 0.475517,-0.376227 0,-0.07168 0.357719,-0.362122 0.794931,-0.645426 0.790404,-0.512164 2.290814,-2.111838 2.48782,-2.652409 0.05673,-0.155652 0.208465,-0.283004 0.337199,-0.283004 0.128733,0 0.467085,-0.294217 0.751893,-0.653816 0.284807,-0.359599 0.854908,-0.825416 1.266889,-1.035148 0.411981,-0.209732 0.926565,-0.57162 1.143519,-0.804196 0.216955,-0.232575 0.699163,-0.601431 1.071576,-0.819679 0.796876,-0.467001 1.528771,-1.543349 1.991714,-2.929076 0.574185,-1.718703 1.979406,-4.10792 2.41608,-4.10792 0.0731,0 0.418768,-0.216292 0.768152,-0.48065 0.746972,-0.565187 0.833865,-0.579601 1.245757,-0.206644 0.171901,0.155652 0.714648,0.50132 1.206106,0.768152 0.691293,0.375331 0.937362,0.613269 1.087073,1.051155 0.106433,0.311304 0.42449,0.925922 0.706793,1.365819 0.646061,1.006723 0.652103,1.424196 0.02705,1.869274 -0.299827,0.213495 -0.732337,0.853179 -1.128195,1.668603 -0.727299,1.498158 -1.261497,2.073351 -2.37885,2.561408 -0.427544,0.186751 -1.154625,0.659051 -1.615734,1.049556 -0.461109,0.390505 -1.128895,0.812508 -1.483969,0.937786 -0.900125,0.317582 -2.146299,1.613847 -3.580291,3.724206 -0.960681,1.413802 -1.288375,1.775335 -2.317951,2.557309 -0.637421,0.484128 -1.340878,0.973257 -1.563237,1.086947 -0.22236,0.1137 -0.643333,0.41437 -0.935496,0.66815 -0.292162,0.25379 -0.63527,0.46144 -0.762462,0.46144 -0.127191,0 -0.30915,0.14554 -0.404353,0.32343 -0.0952,0.17789 -0.266079,0.32343 -0.379724,0.32343 -0.113646,0 -0.410149,0.21243 -0.658896,0.47207 -0.248747,0.25963 -0.632947,0.51741 -0.853779,0.57284 -0.220832,0.0554 -0.964206,0.49506 -1.651943,0.97697 -0.687737,0.48191 -1.572473,1.01463 -1.96608,1.18382 -0.393608,0.16919 -1.032402,0.57281 -1.419544,0.89693 -0.387141,0.32412 -0.896547,0.63476 -1.132013,0.69031 -0.235466,0.0556 -0.573665,0.22722 -0.751552,0.38149 -0.298881,0.2592 -1.374588,0.5739 -1.374589,0.40214 z"
       id="path6932" />
    <path
       style="fill:#00d76b;fill-opacity:1;stroke-width:0.161716"
       d="m 98.299361,45.563807 c -0.749931,-0.05086 -0.852611,-0.104645 -1.033505,-0.541362 -0.201678,-0.486893 -0.87703,-0.954787 -1.378129,-0.954787 -0.222582,0 -0.249321,-0.103904 -0.156064,-0.606435 0.0619,-0.33354 0.21554,-0.721324 0.34143,-0.861744 0.12589,-0.140419 0.228891,-0.418099 0.228891,-0.617067 0,-0.198967 0.07583,-0.503445 0.168506,-0.676616 0.132981,-0.248476 0.233022,-0.280329 0.474517,-0.151085 0.477221,0.255401 0.606084,0.201014 0.792802,-0.334606 l 0.173736,-0.498379 1.661391,0.09994 c 2.824534,0.169913 3.030264,0.215002 3.220564,0.705814 0.21845,0.56344 0.0501,2.000862 -0.33679,2.875482 -0.33442,0.75602 -0.76486,1.040463 -2.03096,1.342117 -1.158414,0.275995 -1.207499,0.281044 -2.126389,0.218725 z m 3.145199,-1.690208 c 0.32399,-0.323992 0.2249,-1.083526 -0.19631,-1.504735 -0.46565,-0.465652 -1.17718,-0.675094 -1.534827,-0.451783 -0.755225,0.471553 -0.836923,1.701902 -0.131848,1.985612 0.527175,0.212126 1.639125,0.194761 1.862985,-0.02909 z"
       id="path6971" />
    <path
       style="fill:#000000;fill-opacity:1;stroke-width:0.161716"
       d="m 64.983022,60.603138 c 0.12149,-0.77298 -0.11762,-1.832792 -0.471965,-2.091895 -0.256001,-0.187193 -0.256341,-0.227416 -0.0052,-0.610766 0.147888,-0.225707 0.334409,-0.410376 0.41449,-0.410376 0.08008,0 0.47344,-0.250245 0.874131,-0.556099 0.597255,-0.455895 0.761435,-0.516453 0.911136,-0.336075 0.556904,0.67103 2.573172,0.383886 3.655159,-0.520543 0.656881,-0.549084 0.713447,-0.656378 0.713447,-1.35325 v -0.756882 l 1.819307,-0.07244 c 1.918249,-0.07638 2.861548,-0.376419 3.90437,-1.241884 0.279329,-0.231823 0.365324,-0.02279 0.09984,0.242696 -0.08799,0.08799 -0.295046,0.55737 -0.460127,1.043069 -0.266652,0.784541 -0.41552,0.960391 -1.333999,1.575787 -1.075787,0.720795 -2.31974,1.180112 -4.059281,1.498847 -0.561696,0.102919 -1.189887,0.218523 -1.39598,0.256896 -0.209018,0.03892 -0.495058,0.292298 -0.646865,0.573004 -0.40008,0.739789 -1.161125,1.587466 -1.425228,1.587466 -0.126574,0 -0.715373,0.400248 -1.308442,0.889439 -0.59307,0.489192 -1.146222,0.889439 -1.229228,0.889439 -0.08353,0 -0.10836,-0.270789 -0.05561,-0.606435 z"
       id="path7084" />
    <path
       style="fill:#000000;fill-opacity:1;stroke-width:0.161716"
       d="m 77.429605,51.818214 c 0.05381,-0.215858 0.147516,-0.704958 0.208236,-1.086888 0.119475,-0.751511 0.625068,-1.165317 1.423795,-1.165317 0.221528,0 0.440132,-0.06044 0.485788,-0.134315 0.04566,-0.07387 0.57755,-0.337353 1.181987,-0.585511 0.604436,-0.248158 1.280906,-0.648367 1.503265,-0.889353 0.22236,-0.240986 0.736744,-0.663246 1.143076,-0.938356 0.406332,-0.275111 0.915738,-0.762505 1.132013,-1.083099 0.216276,-0.320594 0.720704,-0.774717 1.120951,-1.009163 0.400248,-0.234446 0.764109,-0.468951 0.808581,-0.521122 0.231974,-0.272135 2.10231,-1.612686 2.10231,-1.506816 0,0.219751 -0.814978,1.331101 -0.976127,1.331101 -0.08574,0 -0.155886,0.106729 -0.155886,0.237176 0,0.223568 -0.434762,0.775854 -2.206685,2.803194 -0.412064,0.471461 -1.027738,0.999298 -1.368164,1.172971 -0.340427,0.173672 -0.696263,0.460216 -0.790748,0.636763 -0.09449,0.176547 -0.353541,0.366611 -0.57568,0.422364 -0.222138,0.05575 -0.472356,0.229303 -0.55604,0.385667 -0.08368,0.156364 -0.490293,0.369444 -0.903578,0.47351 -0.805135,0.202735 -2.438118,0.976106 -3.2055,1.518106 l -0.469431,0.331558 z"
       id="path7123" />
    <path
       style="fill:#000000;fill-opacity:1;stroke-width:0.161716"
       d="m 66.802533,22.14493 c -0.674924,-0.911565 -1.229527,-1.43967 -1.842626,-1.754589 -0.45525,-0.233839 -0.527681,-0.349598 -0.485148,-0.775366 0.07675,-0.768326 0.724657,-1.156622 2.055391,-1.231815 1.542569,-0.08716 2.380959,0.376071 1.27837,0.706336 -0.650271,0.194779 -0.820031,0.752881 -0.596617,1.961437 0.08944,0.483837 0.139988,1.071172 0.112325,1.305189 -0.04998,0.422777 -0.0533,0.421432 -0.521695,-0.211192 z"
       id="path7162" />
    <path
       style="fill:#000000;fill-opacity:1;stroke-width:0.161716"
       d="m 50.690744,70.477442 -1.381865,-0.06167 0.06499,-0.600623 c 0.03827,-0.353724 0.243732,-0.800053 0.499814,-1.085771 0.239154,-0.266832 0.554917,-0.752261 0.701696,-1.078732 0.221601,-0.492892 0.330077,-0.578378 0.639478,-0.503948 0.204934,0.0493 0.590924,0.288733 0.857755,0.532076 0.712429,0.649714 1.906391,1.293178 2.399522,1.293178 0.339711,0 0.429753,0.07674 0.426915,0.363861 -0.002,0.200124 -0.129329,0.52295 -0.283003,0.717392 -0.319655,0.404455 -1.502964,0.532345 -3.925299,0.424239 z"
       id="path7201" />
    <path
       style="fill:#000000;fill-opacity:1;stroke-width:0.161716"
       d="m 57.701728,70.605916 c -0.194909,-0.162727 -0.649736,-0.343096 -1.010726,-0.400821 -0.596381,-0.09537 -0.656346,-0.148822 -0.656346,-0.58511 0,-0.390122 0.08339,-0.50017 0.444719,-0.586889 0.244596,-0.0587 0.574906,-0.24202 0.734023,-0.407371 0.222415,-0.231132 0.526821,-0.30064 1.316627,-0.30064 0.951926,0 1.034534,0.02873 1.125561,0.391408 0.112246,0.447223 0.7632,0.661762 1.469811,0.484414 l 0.442483,-0.111057 -0.381298,0.686817 c -0.234184,0.421823 -0.582077,0.773446 -0.901683,0.911347 -0.756096,0.326233 -2.147035,0.282027 -2.583171,-0.0821 z"
       id="path7240" />
    <path
       style="fill:#000000;fill-opacity:1;stroke-width:0.161716"
       d="m 48.649295,67.860151 c 0.05947,-0.300185 0.108133,-0.903117 0.108133,-1.339848 0,-0.734948 0.02328,-0.781595 0.312801,-0.62665 0.17204,0.09207 0.45025,0.167406 0.618244,0.167406 0.282365,0 0.270992,0.07178 -0.150529,0.950034 -0.250785,0.522519 -0.577654,1.050118 -0.726377,1.172442 -0.245931,0.202279 -0.260617,0.173011 -0.162272,-0.323384 z"
       id="path7279" />
    <path
       style="fill:#000000;fill-opacity:1;stroke-width:0.161716"
       d="m 75.999617,38.528879 c -0.242964,-0.825289 -0.809375,-1.008685 -2.486368,-0.805052 -1.718679,0.208694 -2.147552,0.02665 -2.44566,-1.038083 -0.107447,-0.383762 -0.295446,-0.780814 -0.417776,-0.882339 -0.122329,-0.101525 -0.222418,-0.343995 -0.222418,-0.538824 0,-0.402955 -0.573398,-0.988501 -1.576732,-1.610137 -0.914906,-0.566849 -0.909148,-0.906918 0.01536,-0.906918 0.545144,0 0.926996,-0.145001 1.703476,-0.646865 0.550454,-0.355775 1.074856,-0.646864 1.165337,-0.646864 0.09048,0 0.269409,0.251055 0.397618,0.557901 0.364424,0.87219 1.336614,1.226685 3.672007,1.338944 1.709192,0.08216 1.900165,0.121453 1.900165,0.390976 0,0.239248 0.124112,0.299637 0.615812,0.299637 h 0.615811 l -0.06328,1.495875 c -0.116018,2.742677 -0.542429,3.517327 -1.936133,3.517327 -0.743259,0 -0.790247,-0.02635 -0.937219,-0.525578 z"
       id="path7318" />
    <path
       style="fill:#000000;fill-opacity:1;stroke-width:0.161716"
       d="m 82.946038,40.779869 c -0.363674,-0.281897 -0.820673,-0.785437 -1.015555,-1.118976 -0.194881,-0.33354 -0.459445,-0.606436 -0.587921,-0.606436 -0.128476,0 -0.33717,-0.200296 -0.463764,-0.445101 -0.126594,-0.244806 -0.383165,-0.58356 -0.570159,-0.752787 -0.290592,-0.262982 -0.338635,-0.486135 -0.330669,-1.535922 0.0051,-0.67553 0.06172,-1.519326 0.12576,-1.875101 l 0.116442,-0.646865 0.314469,0.363862 c 0.172958,0.200123 0.439547,0.363861 0.592418,0.363861 0.152872,0 0.327946,0.0809 0.389053,0.179771 0.179671,0.290714 1.814871,0.952242 2.353802,0.952242 0.504519,0 1.43537,0.537664 1.43537,0.829076 0,0.297178 1.022154,1.434951 1.289134,1.434951 0.145588,0 0.610753,0.219457 1.033701,0.487682 0.716595,0.454451 0.765585,0.528477 0.718954,1.086382 -0.03949,0.472473 -0.165892,0.676511 -0.599533,0.967763 -0.302221,0.202985 -0.778144,0.369064 -1.057607,0.369064 -0.279464,0 -0.927203,0.109158 -1.439421,0.242574 -1.270854,0.331016 -1.540142,0.296422 -2.304474,-0.29604 z"
       id="path7357" />
    <path
       style="fill:#000000;fill-opacity:1;stroke-width:0.161716"
       d="m 54.013203,38.540451 c 0.533664,-0.274148 1.006684,-0.54424 1.051156,-0.600206 0.04447,-0.05597 0.353754,-0.244959 0.687293,-0.419986 0.33354,-0.175026 0.606436,-0.374453 0.606436,-0.443171 0,-0.06872 0.145545,-0.124941 0.323432,-0.124941 0.50992,0 0.417119,0.621666 -0.121287,0.812486 -0.708278,0.251027 -0.925809,0.414042 -0.989004,0.741151 -0.08857,0.458459 -0.323902,0.544235 -1.477167,0.538418 l -1.051156,-0.0053 0.970297,-0.49845 z"
       id="path7663" />
    <path
       style="fill:#000000;fill-opacity:1;stroke-width:0.161716"
       d="m 55.226075,71.78204 c 0,-0.310507 0.32101,-0.416612 1.073094,-0.354694 l 0.621957,0.0512 -0.847525,0.268135 c -0.721137,0.228149 -0.847526,0.233422 -0.847526,0.03535 z"
       id="path7702" />
    <path
       style="fill:#000000;fill-opacity:1;stroke-width:0.161716"
       d="m 57.895983,70.591686 c -0.0541,-0.08753 -0.440445,-0.258506 -0.858554,-0.379952 -1.065277,-0.309424 -1.103266,-0.731954 -0.117737,-1.309512 1.053596,-0.617449 2.236957,-0.636813 2.725287,-0.0446 0.26781,0.324783 0.523691,0.437531 1.072529,0.472581 l 0.720806,0.04603 -0.655337,0.687294 c -0.64159,0.672876 -0.677714,0.687294 -1.721989,0.687294 -0.586657,0 -1.11091,-0.07161 -1.165005,-0.159142 z"
       id="path7741" />
    <path
       style="fill:#000000;fill-opacity:1;stroke-width:0.161716"
       d="m 57.719057,70.520977 c -0.180487,-0.126418 -0.578734,-0.294457 -0.884993,-0.37342 -0.862842,-0.222467 -0.829381,-0.709104 0.08563,-1.245335 1.01767,-0.596395 2.261111,-0.63767 2.675125,-0.0888 0.208359,0.276228 0.504629,0.407693 1.065344,0.472729 l 0.77672,0.09009 -0.654621,0.687294 c -0.637674,0.669501 -0.681551,0.687294 -1.694833,0.687294 -0.637309,0 -1.167316,-0.08903 -1.36837,-0.229851 z"
       id="path7780" />
    <path
       style="fill:#000000;fill-opacity:1;stroke-width:0.161716"
       d="m 57.719057,70.520977 c -0.180487,-0.126418 -0.578734,-0.294457 -0.884993,-0.37342 -0.862842,-0.222467 -0.829381,-0.709104 0.08563,-1.245335 1.01767,-0.596395 2.261111,-0.63767 2.675125,-0.0888 0.208064,0.275837 0.507553,0.409004 1.072978,0.477096 l 0.784353,0.09446 -0.668269,0.682927 c -0.647694,0.661901 -0.700108,0.682926 -1.702466,0.682926 -0.632111,0 -1.161782,-0.08936 -1.362356,-0.229851 z"
       id="path7819" />
    <path
       style="fill:#000000;fill-opacity:1;stroke-width:0.161716"
       d="m 57.409243,70.428458 c -0.355775,-0.166268 -0.774216,-0.3414 -0.929868,-0.389183 -1.000963,-0.30728 0.603286,-1.581261 2.018065,-1.602604 0.666222,-0.01005 0.85392,0.05399 1.095023,0.37363 0.210578,0.279171 0.507704,0.41186 1.075332,0.480217 l 0.784353,0.09446 -0.668269,0.682927 c -0.650421,0.664687 -0.69577,0.682658 -1.69802,0.672894 -0.648582,-0.0063 -1.269192,-0.121932 -1.676616,-0.312338 z"
       id="path7858" />
    <path
       style="fill:#000000;fill-opacity:1;stroke-width:0.161716"
       d=""
       id="path7897" />
  </g>
</svg>
