<?xml version="1.0" encoding="utf-8"?>
<!-- Generator: Adobe Illustrator 23.0.3, SVG Export Plug-In . SVG Version: 6.00 Build 0)  -->
<svg version="1.1" id="Layer_1" xmlns="http://www.w3.org/2000/svg" xmlns:xlink="http://www.w3.org/1999/xlink" x="0px" y="0px"
	 viewBox="0 0 884 884" style="enable-background:new 0 0 884 884;" xml:space="preserve">
<style type="text/css">
	.st0{display:none;}
	.st1{display:inline;fill:#29ABE2;}
	.st2{fill:#70D4EF;stroke:#1B7C8C;stroke-width:4;stroke-miterlimit:10;}
	.st3{display:inline;}
	.st4{fill:#29ABE2;}
	.st5{fill:#70D4EF;}
	.st6{fill:#FFFFFF;stroke:#000000;stroke-width:4;stroke-miterlimit:10;}
	.st7{fill:#FFFFFF;}
</style>
<g id="color_-_outline">
	<g id="Layer_1_copy_8_">
		<g class="st0">
			<path class="st1" d="M336.5,193.5c0,0,76-52,91-62l0,0c9-6,20-12,33-19c-1,16-6,32-10,46c-10,34-56,129-64,137c-3,4,9,2,44,2
				s74,45,97,66s81,29,120,38s93,14,90,32s6,43-57,95c-28,35-39,61-42,72s-48,7-91,11s-77-1-124,33c-36.7,26.5-68,45-97,48
				c3-4,9-11,12-15c13-16,26-36-10-10c-38,24-43,23-57,28c-4.2,1.6-12,3-21,3c7-11,23-26,32-36c26-31,74-76,86-83c10-5,18-12-3,27
				c-1,2-10,12,72-18c32-14,80-18,114-21s60-33,55-48c10,8,20,26,21,39s37-29,24-25c-10.2,3.1-14,2-18.7,3.2
				c-1.5,0.4-3.1-0.4-3.4-1.9c-1.2-5.8-0.3-14.5,14.1-19.3c18-6-9-13-20-9s0-43,15-64c6-9,3-8-40-18s-86-24-100-29s-27,4-30,12
				s-40-6-64-40s12-17,24-11s42,9,9-11s-105-30-125-34s14-45.6,28-66c8.1-11.8,15-19,18.3-26.3c-12.3,1.3-16.3,3.3-33.3,8.3
				c-38,12-49,16-58.7,18.2c9.7-11.2,24.7-21.2,33.7-27.2C334.5,195.5,336.5,193.5,336.5,193.5z"/>
			<path class="st1" d="M573.5,529.5c0,0-20,13-27,26c-2.5,4.5-3.5,4.5-6.2,8.6c-1.3-4.1-1.8-7.1-2.3-10.1c-1-6,1.5-39.5,17.5-42.5
				c10.9-2,27.6-0.4,28.5,6C584.5,520.5,581.8,524.4,573.5,529.5z"/>
			<path class="st1" d="M290.5,482.5c0,0-30,26-104,35c11,11,54,40,74,20c11.1-11.1,11-12,11.8-14.2c-1.8,1.2-4.8,2.2-4.8,2.2
				c-9,3-41-2-2-12C286.5,508.5,290.5,482.5,290.5,482.5z"/>
			<path class="st1" d="M204.5,578.5c0,0,67-29,87-44c3.1-2.3,10-7,16.5-11c-4.5,13-24.4,34.3-34.5,41c-12,8,7,5,17,0
				c-5,9-35,22-59,24c-18,1.5-19,2-40-5C199.5,580.5,201.5,580,204.5,578.5z"/>
			<path class="st1" d="M348.5,537.5c0,0-64,54-96,61c19,8,59,24,76,8s15-19,16-22c-8,4-49,18-15-12
				C340.5,563.5,348.5,537.5,348.5,537.5z"/>
			<path class="st1" d="M177.5,703.5c0,0,24,15,35,5c11-13,12-24,36-34c-20,37-5,69-27,68C202.5,739.5,193.5,746.5,177.5,703.5z"/>
			<path class="st1" d="M367.5,389.5c0,0,58-2,88,27s-32,25-48,19S387.5,407.5,367.5,389.5z"/>
			<path class="st1" d="M131.5,284.5c0,0,67-23,90-36c25-11,48,0,52,18c1,4,0,12-1.3,19.3c-18.7-12.3-25.7-12.3-33.7-13.3
				C211.5,268.5,196.5,306.5,131.5,284.5z"/>
		</g>
		<g id="Layer_1_copy_9_">
			<path class="st2" d="M336.5,193.5c0,0,76-52,91-62l0,0c9-6,20-12,33-19c-1,16-6,32-10,46c-10,34-56,129-64,137c-3,4,9,2,44,2
				s74,45,97,66s81,29,120,38s93,14,90,32s6,43-57,95c-28,35-39,61-42,72s-48,7-91,11s-77-1-124,33c-36.7,26.5-68,45-97,48
				c3-4,9-11,12-15c13-16,26-36-10-10c-38,24-43,23-57,28c-4.2,1.6-12,3-21,3c7-11,23-26,32-36c26-31,74-76,86-83c10-5,18-12-3,27
				c-1,2-10,12,72-18c32-14,80-18,114-21s60-33,55-48c10,8,20,26,21,39s37-29,24-25c-10.2,3.1-14,2-18.7,3.2
				c-1.5,0.4-3.1-0.4-3.4-1.9c-1.2-5.8-0.3-14.5,14.1-19.3c18-6-9-13-20-9s0-43,15-64c6-9,3-8-40-18s-86-24-100-29s-27,4-30,12
				s-40-6-64-40s12-17,24-11s42,9,9-11s-105-30-125-34s14-45.6,28-66c8.1-11.8,15-19,18.3-26.3c-12.3,1.3-16.3,3.3-33.3,8.3
				c-38,12-49,16-58.7,18.2c9.7-11.2,24.7-21.2,33.7-27.2C334.5,195.5,336.5,193.5,336.5,193.5z"/>
			<path class="st2" d="M573.5,529.5c0,0-20,13-27,26c-2.5,4.5-3.5,4.5-6.2,8.6c-1.3-4.1-1.8-7.1-2.3-10.1c-1-6,1.5-39.5,17.5-42.5
				c10.9-2,27.6-0.4,28.5,6C584.5,520.5,581.8,524.4,573.5,529.5z"/>
			<path class="st2" d="M290.5,482.5c0,0-30,26-104,35c11,11,54,40,74,20c11.1-11.1,11-12,11.8-14.2c-1.8,1.2-4.8,2.2-4.8,2.2
				c-9,3-41-2-2-12C286.5,508.5,290.5,482.5,290.5,482.5z"/>
			<path class="st2" d="M204.5,578.5c0,0,67-29,87-44c3.1-2.3,10-7,16.5-11c-4.5,13-24.4,34.3-34.5,41c-12,8,7,5,17,0
				c-5,9-35,22-59,24c-18,1.5-19,2-40-5C199.5,580.5,201.5,580,204.5,578.5z"/>
			<path class="st2" d="M348.5,537.5c0,0-64,54-96,61c19,8,59,24,76,8s15-19,16-22c-8,4-49,18-15-12
				C340.5,563.5,348.5,537.5,348.5,537.5z"/>
			<path class="st2" d="M177.5,703.5c0,0,24,15,35,5c11-13,12-24,36-34c-20,37-5,69-27,68C202.5,739.5,193.5,746.5,177.5,703.5z"/>
			<path class="st2" d="M367.5,389.5c0,0,58-2,88,27s-32,25-48,19S387.5,407.5,367.5,389.5z"/>
			<path class="st2" d="M131.5,284.5c0,0,67-23,90-36c25-11,48,0,52,18c1,4,0,12-1.3,19.3c-18.7-12.3-25.7-12.3-33.7-13.3
				C211.5,268.5,196.5,306.5,131.5,284.5z"/>
		</g>
	</g>
</g>
<g id="color" class="st0">
	<g id="Layer_1_copy_2_1_" class="st3">
		<g>
			<path class="st4" d="M337.5,192.8c0,0,76-52,91-62l0,0c9-6,20-12,33-19c-1,16-6,32-10,46c-10,34-56,129-64,137c-3,4,9,2,44,2
				s74,45,97,66s81,29,120,38s93,14,90,32s6,43-57,95c-28,35-39,61-42,72s-48,7-91,11s-77-1-124,33c-36.7,26.5-68,45-97,48
				c3-4,9-11,12-15c13-16,26-36-10-10c-38,24-43,23-57,28c-4.2,1.6-12,3-21,3c7-11,23-26,32-36c26-31,74-76,86-83c10-5,18-12-3,27
				c-1,2-10,12,72-18c32-14,80-18,114-21s60-33,55-48c10,8,20,26,21,39s37-29,24-25c-10.2,3.1-14,2-18.7,3.2
				c-1.5,0.4-3.1-0.4-3.4-1.9c-1.2-5.8-0.3-14.5,14.1-19.3c18-6-9-13-20-9s0-43,15-64c6-9,3-8-40-18s-86-24-100-29s-27,4-30,12
				s-40-6-64-40s12-17,24-11s42,9,9-11s-105-30-125-34s14-45.6,28-66c8.1-11.8,15-19,18.3-26.3c-12.3,1.3-16.3,3.3-33.3,8.3
				c-38,12-49,16-58.7,18.2c9.7-11.2,24.7-21.2,33.7-27.2C335.5,194.8,337.5,192.8,337.5,192.8z"/>
			<path class="st4" d="M574.5,528.8c0,0-20,13-27,26c-2.5,4.5-3.5,4.5-6.2,8.6c-1.3-4.1-1.8-7.1-2.3-10.1c-1-6,1.5-39.5,17.5-42.5
				c10.9-2,27.6-0.4,28.5,6C585.5,519.8,582.8,523.7,574.5,528.8z"/>
			<path class="st4" d="M291.5,481.8c0,0-30,26-104,35c11,11,54,40,74,20c11.1-11.1,11-12,11.8-14.2c-1.8,1.2-4.8,2.2-4.8,2.2
				c-9,3-41-2-2-12C287.5,507.8,291.5,481.8,291.5,481.8z"/>
			<path class="st4" d="M205.5,577.8c0,0,67-29,87-44c3.1-2.3,10-7,16.5-11c-4.5,13-24.4,34.3-34.5,41c-12,8,7,5,17,0
				c-5,9-35,22-59,24c-18,1.5-19,2-40-5C200.5,579.8,202.5,579.3,205.5,577.8z"/>
			<path class="st4" d="M349.5,536.8c0,0-64,54-96,61c19,8,59,24,76,8s15-19,16-22c-8,4-49,18-15-12
				C341.5,562.8,349.5,536.8,349.5,536.8z"/>
			<path class="st4" d="M178.5,702.8c0,0,24,15,35,5c11-13,12-24,36-34c-20,37-5,69-27,68C203.5,738.8,194.5,745.8,178.5,702.8z"/>
			<path class="st4" d="M368.5,388.8c0,0,58-2,88,27s-32,25-48,19S388.5,406.8,368.5,388.8z"/>
			<path class="st4" d="M132.5,283.8c0,0,67-23,90-36c25-11,48,0,52,18c1,4,0,12-1.3,19.3c-18.7-12.3-25.7-12.3-33.7-13.3
				C212.5,267.8,197.5,305.8,132.5,283.8z"/>
		</g>
		<g id="Layer_1_copy_7_">
			<path class="st5" d="M337.5,192.8c0,0,76-52,91-62l0,0c9-6,20-12,33-19c-1,16-6,32-10,46c-10,34-56,129-64,137c-3,4,9,2,44,2
				s74,45,97,66s81,29,120,38s93,14,90,32s6,43-57,95c-28,35-39,61-42,72s-48,7-91,11s-77-1-124,33c-36.7,26.5-68,45-97,48
				c3-4,9-11,12-15c13-16,26-36-10-10c-38,24-43,23-57,28c-4.2,1.6-12,3-21,3c7-11,23-26,32-36c26-31,74-76,86-83c10-5,18-12-3,27
				c-1,2-10,12,72-18c32-14,80-18,114-21s60-33,55-48c10,8,20,26,21,39s37-29,24-25c-10.2,3.1-14,2-18.7,3.2
				c-1.5,0.4-3.1-0.4-3.4-1.9c-1.2-5.8-0.3-14.5,14.1-19.3c18-6-9-13-20-9s0-43,15-64c6-9,3-8-40-18s-86-24-100-29s-27,4-30,12
				s-40-6-64-40s12-17,24-11s42,9,9-11s-105-30-125-34s14-45.6,28-66c8.1-11.8,15-19,18.3-26.3c-12.3,1.3-16.3,3.3-33.3,8.3
				c-38,12-49,16-58.7,18.2c9.7-11.2,24.7-21.2,33.7-27.2C335.5,194.8,337.5,192.8,337.5,192.8z"/>
			<path class="st5" d="M574.5,528.8c0,0-20,13-27,26c-2.5,4.5-3.5,4.5-6.2,8.6c-1.3-4.1-1.8-7.1-2.3-10.1c-1-6,1.5-39.5,17.5-42.5
				c10.9-2,27.6-0.4,28.5,6C585.5,519.8,582.8,523.7,574.5,528.8z"/>
			<path class="st5" d="M291.5,481.8c0,0-30,26-104,35c11,11,54,40,74,20c11.1-11.1,11-12,11.8-14.2c-1.8,1.2-4.8,2.2-4.8,2.2
				c-9,3-41-2-2-12C287.5,507.8,291.5,481.8,291.5,481.8z"/>
			<path class="st5" d="M205.5,577.8c0,0,67-29,87-44c3.1-2.3,10-7,16.5-11c-4.5,13-24.4,34.3-34.5,41c-12,8,7,5,17,0
				c-5,9-35,22-59,24c-18,1.5-19,2-40-5C200.5,579.8,202.5,579.3,205.5,577.8z"/>
			<path class="st5" d="M349.5,536.8c0,0-64,54-96,61c19,8,59,24,76,8s15-19,16-22c-8,4-49,18-15-12
				C341.5,562.8,349.5,536.8,349.5,536.8z"/>
			<path class="st5" d="M178.5,702.8c0,0,24,15,35,5c11-13,12-24,36-34c-20,37-5,69-27,68C203.5,738.8,194.5,745.8,178.5,702.8z"/>
			<path class="st5" d="M368.5,388.8c0,0,58-2,88,27s-32,25-48,19S388.5,406.8,368.5,388.8z"/>
			<path class="st5" d="M132.5,283.8c0,0,67-23,90-36c25-11,48,0,52,18c1,4,0,12-1.3,19.3c-18.7-12.3-25.7-12.3-33.7-13.3
				C212.5,267.8,197.5,305.8,132.5,283.8z"/>
		</g>
	</g>
</g>
<g id="white_-_outline" class="st0">
	<g id="white_-_outline_1_" class="st3">
		<g>
			<path class="st4" d="M336.2,193.8c0,0,76-52,91-62l0,0c9-6,20-12,33-19c-1,16-6,32-10,46c-10,34-56,129-64,137c-3,4,9,2,44,2
				s74,45,97,66s81,29,120,38s93,14,90,32s6,43-57,95c-28,35-39,61-42,72s-48,7-91,11s-77-1-124,33c-36.7,26.5-68,45-97,48
				c3-4,9-11,12-15c13-16,26-36-10-10c-38,24-43,23-57,28c-4.2,1.6-12,3-21,3c7-11,23-26,32-36c26-31,74-76,86-83c10-5,18-12-3,27
				c-1,2-10,12,72-18c32-14,80-18,114-21s60-33,55-48c10,8,20,26,21,39s37-29,24-25c-10.2,3.1-14,2-18.7,3.2
				c-1.5,0.4-3.1-0.4-3.4-1.9c-1.2-5.8-0.3-14.5,14.1-19.3c18-6-9-13-20-9s0-43,15-64c6-9,3-8-40-18s-86-24-100-29s-27,4-30,12
				s-40-6-64-40s12-17,24-11s42,9,9-11s-105-30-125-34s14-45.6,28-66c8.1-11.8,15-19,18.3-26.3c-12.3,1.3-16.3,3.3-33.3,8.3
				c-38,12-49,16-58.7,18.2c9.7-11.2,24.7-21.2,33.7-27.2C334.2,195.8,336.2,193.8,336.2,193.8z"/>
			<path class="st4" d="M573.2,529.8c0,0-20,13-27,26c-2.5,4.5-3.5,4.5-6.2,8.6c-1.3-4.1-1.8-7.1-2.3-10.1c-1-6,1.5-39.5,17.5-42.5
				c10.9-2,27.6-0.4,28.5,6C584.2,520.8,581.5,524.7,573.2,529.8z"/>
			<path class="st4" d="M290.2,482.8c0,0-30,26-104,35c11,11,54,40,74,20c11.1-11.1,11-12,11.8-14.2c-1.8,1.2-4.8,2.2-4.8,2.2
				c-9,3-41-2-2-12C286.2,508.8,290.2,482.8,290.2,482.8z"/>
			<path class="st4" d="M204.2,578.8c0,0,67-29,87-44c3.1-2.3,10-7,16.5-11c-4.5,13-24.4,34.3-34.5,41c-12,8,7,5,17,0
				c-5,9-35,22-59,24c-18,1.5-19,2-40-5C199.2,580.8,201.2,580.3,204.2,578.8z"/>
			<path class="st4" d="M348.2,537.8c0,0-64,54-96,61c19,8,59,24,76,8s15-19,16-22c-8,4-49,18-15-12
				C340.2,563.8,348.2,537.8,348.2,537.8z"/>
			<path class="st4" d="M177.2,703.8c0,0,24,15,35,5c11-13,12-24,36-34c-20,37-5,69-27,68C202.2,739.8,193.2,746.8,177.2,703.8z"/>
			<path class="st4" d="M367.2,389.8c0,0,58-2,88,27s-32,25-48,19S387.2,407.8,367.2,389.8z"/>
			<path class="st4" d="M131.2,284.8c0,0,67-23,90-36c25-11,48,0,52,18c1,4,0,12-1.3,19.3c-18.7-12.3-25.7-12.3-33.7-13.3
				C211.2,268.8,196.2,306.8,131.2,284.8z"/>
		</g>
		<g id="Layer_1_copy_6_">
			<path class="st6" d="M336.2,193.8c0,0,76-52,91-62l0,0c9-6,20-12,33-19c-1,16-6,32-10,46c-10,34-56,129-64,137c-3,4,9,2,44,2
				s74,45,97,66s81,29,120,38s93,14,90,32s6,43-57,95c-28,35-39,61-42,72s-48,7-91,11s-77-1-124,33c-36.7,26.5-68,45-97,48
				c3-4,9-11,12-15c13-16,26-36-10-10c-38,24-43,23-57,28c-4.2,1.6-12,3-21,3c7-11,23-26,32-36c26-31,74-76,86-83c10-5,18-12-3,27
				c-1,2-10,12,72-18c32-14,80-18,114-21s60-33,55-48c10,8,20,26,21,39s37-29,24-25c-10.2,3.1-14,2-18.7,3.2
				c-1.5,0.4-3.1-0.4-3.4-1.9c-1.2-5.8-0.3-14.5,14.1-19.3c18-6-9-13-20-9s0-43,15-64c6-9,3-8-40-18s-86-24-100-29s-27,4-30,12
				s-40-6-64-40s12-17,24-11s42,9,9-11s-105-30-125-34s14-45.6,28-66c8.1-11.8,15-19,18.3-26.3c-12.3,1.3-16.3,3.3-33.3,8.3
				c-38,12-49,16-58.7,18.2c9.7-11.2,24.7-21.2,33.7-27.2C334.2,195.8,336.2,193.8,336.2,193.8z"/>
			<path class="st6" d="M573.2,529.8c0,0-20,13-27,26c-2.5,4.5-3.5,4.5-6.2,8.6c-1.3-4.1-1.8-7.1-2.3-10.1c-1-6,1.5-39.5,17.5-42.5
				c10.9-2,27.6-0.4,28.5,6C584.2,520.8,581.5,524.7,573.2,529.8z"/>
			<path class="st6" d="M290.2,482.8c0,0-30,26-104,35c11,11,54,40,74,20c11.1-11.1,11-12,11.8-14.2c-1.8,1.2-4.8,2.2-4.8,2.2
				c-9,3-41-2-2-12C286.2,508.8,290.2,482.8,290.2,482.8z"/>
			<path class="st6" d="M204.2,578.8c0,0,67-29,87-44c3.1-2.3,10-7,16.5-11c-4.5,13-24.4,34.3-34.5,41c-12,8,7,5,17,0
				c-5,9-35,22-59,24c-18,1.5-19,2-40-5C199.2,580.8,201.2,580.3,204.2,578.8z"/>
			<path class="st6" d="M348.2,537.8c0,0-64,54-96,61c19,8,59,24,76,8s15-19,16-22c-8,4-49,18-15-12
				C340.2,563.8,348.2,537.8,348.2,537.8z"/>
			<path class="st6" d="M177.2,703.8c0,0,24,15,35,5c11-13,12-24,36-34c-20,37-5,69-27,68C202.2,739.8,193.2,746.8,177.2,703.8z"/>
			<path class="st6" d="M367.2,389.8c0,0,58-2,88,27s-32,25-48,19S387.2,407.8,367.2,389.8z"/>
			<path class="st6" d="M131.2,284.8c0,0,67-23,90-36c25-11,48,0,52,18c1,4,0,12-1.3,19.3c-18.7-12.3-25.7-12.3-33.7-13.3
				C211.2,268.8,196.2,306.8,131.2,284.8z"/>
		</g>
	</g>
</g>
<g id="white" class="st0">
	<g id="white_1_" class="st3">
		<g>
			<path class="st7" d="M336.2,193.5c0,0,76-52,91-62l0,0c9-6,20-12,33-19c-1,16-6,32-10,46c-10,34-56,129-64,137c-3,4,9,2,44,2
				s74,45,97,66s81,29,120,38s93,14,90,32s6,43-57,95c-28,35-39,61-42,72s-48,7-91,11s-77-1-124,33c-36.7,26.5-68,45-97,48
				c3-4,9-11,12-15c13-16,26-36-10-10c-38,24-43,23-57,28c-4.2,1.6-12,3-21,3c7-11,23-26,32-36c26-31,74-76,86-83c10-5,18-12-3,27
				c-1,2-10,12,72-18c32-14,80-18,114-21s60-33,55-48c10,8,20,26,21,39s37-29,24-25c-10.2,3.1-14,2-18.7,3.2
				c-1.5,0.4-3.1-0.4-3.4-1.9c-1.2-5.8-0.3-14.5,14.1-19.3c18-6-9-13-20-9s0-43,15-64c6-9,3-8-40-18s-86-24-100-29s-27,4-30,12
				s-40-6-64-40s12-17,24-11s42,9,9-11s-105-30-125-34s14-45.6,28-66c8.1-11.8,15-19,18.3-26.3c-12.3,1.3-16.3,3.3-33.3,8.3
				c-38,12-49,16-58.7,18.2c9.7-11.2,24.7-21.2,33.7-27.2C334.2,195.5,336.2,193.5,336.2,193.5z"/>
			<path class="st7" d="M573.2,529.5c0,0-20,13-27,26c-2.5,4.5-3.5,4.5-6.2,8.6c-1.3-4.1-1.8-7.1-2.3-10.1c-1-6,1.5-39.5,17.5-42.5
				c10.9-2,27.6-0.4,28.5,6C584.2,520.5,581.5,524.4,573.2,529.5z"/>
			<path class="st7" d="M290.2,482.5c0,0-30,26-104,35c11,11,54,40,74,20c11.1-11.1,11-12,11.8-14.2c-1.8,1.2-4.8,2.2-4.8,2.2
				c-9,3-41-2-2-12C286.2,508.5,290.2,482.5,290.2,482.5z"/>
			<path class="st7" d="M204.2,578.5c0,0,67-29,87-44c3.1-2.3,10-7,16.5-11c-4.5,13-24.4,34.3-34.5,41c-12,8,7,5,17,0
				c-5,9-35,22-59,24c-18,1.5-19,2-40-5C199.2,580.5,201.2,580,204.2,578.5z"/>
			<path class="st7" d="M348.2,537.5c0,0-64,54-96,61c19,8,59,24,76,8s15-19,16-22c-8,4-49,18-15-12
				C340.2,563.5,348.2,537.5,348.2,537.5z"/>
			<path class="st7" d="M177.2,703.5c0,0,24,15,35,5c11-13,12-24,36-34c-20,37-5,69-27,68C202.2,739.5,193.2,746.5,177.2,703.5z"/>
			<path class="st7" d="M367.2,389.5c0,0,58-2,88,27s-32,25-48,19S387.2,407.5,367.2,389.5z"/>
			<path class="st7" d="M131.2,284.5c0,0,67-23,90-36c25-11,48,0,52,18c1,4,0,12-1.3,19.3c-18.7-12.3-25.7-12.3-33.7-13.3
				C211.2,268.5,196.2,306.5,131.2,284.5z"/>
		</g>
		<g id="Layer_1_copy_5_">
			<path class="st7" d="M336.2,193.5c0,0,76-52,91-62l0,0c9-6,20-12,33-19c-1,16-6,32-10,46c-10,34-56,129-64,137c-3,4,9,2,44,2
				s74,45,97,66s81,29,120,38s93,14,90,32s6,43-57,95c-28,35-39,61-42,72s-48,7-91,11s-77-1-124,33c-36.7,26.5-68,45-97,48
				c3-4,9-11,12-15c13-16,26-36-10-10c-38,24-43,23-57,28c-4.2,1.6-12,3-21,3c7-11,23-26,32-36c26-31,74-76,86-83c10-5,18-12-3,27
				c-1,2-10,12,72-18c32-14,80-18,114-21s60-33,55-48c10,8,20,26,21,39s37-29,24-25c-10.2,3.1-14,2-18.7,3.2
				c-1.5,0.4-3.1-0.4-3.4-1.9c-1.2-5.8-0.3-14.5,14.1-19.3c18-6-9-13-20-9s0-43,15-64c6-9,3-8-40-18s-86-24-100-29s-27,4-30,12
				s-40-6-64-40s12-17,24-11s42,9,9-11s-105-30-125-34s14-45.6,28-66c8.1-11.8,15-19,18.3-26.3c-12.3,1.3-16.3,3.3-33.3,8.3
				c-38,12-49,16-58.7,18.2c9.7-11.2,24.7-21.2,33.7-27.2C334.2,195.5,336.2,193.5,336.2,193.5z"/>
			<path class="st7" d="M573.2,529.5c0,0-20,13-27,26c-2.5,4.5-3.5,4.5-6.2,8.6c-1.3-4.1-1.8-7.1-2.3-10.1c-1-6,1.5-39.5,17.5-42.5
				c10.9-2,27.6-0.4,28.5,6C584.2,520.5,581.5,524.4,573.2,529.5z"/>
			<path class="st7" d="M290.2,482.5c0,0-30,26-104,35c11,11,54,40,74,20c11.1-11.1,11-12,11.8-14.2c-1.8,1.2-4.8,2.2-4.8,2.2
				c-9,3-41-2-2-12C286.2,508.5,290.2,482.5,290.2,482.5z"/>
			<path class="st7" d="M204.2,578.5c0,0,67-29,87-44c3.1-2.3,10-7,16.5-11c-4.5,13-24.4,34.3-34.5,41c-12,8,7,5,17,0
				c-5,9-35,22-59,24c-18,1.5-19,2-40-5C199.2,580.5,201.2,580,204.2,578.5z"/>
			<path class="st7" d="M348.2,537.5c0,0-64,54-96,61c19,8,59,24,76,8s15-19,16-22c-8,4-49,18-15-12
				C340.2,563.5,348.2,537.5,348.2,537.5z"/>
			<path class="st7" d="M177.2,703.5c0,0,24,15,35,5c11-13,12-24,36-34c-20,37-5,69-27,68C202.2,739.5,193.2,746.5,177.2,703.5z"/>
			<path class="st7" d="M367.2,389.5c0,0,58-2,88,27s-32,25-48,19S387.2,407.5,367.2,389.5z"/>
			<path class="st7" d="M131.2,284.5c0,0,67-23,90-36c25-11,48,0,52,18c1,4,0,12-1.3,19.3c-18.7-12.3-25.7-12.3-33.7-13.3
				C211.2,268.5,196.2,306.5,131.2,284.5z"/>
		</g>
	</g>
</g>
</svg>
