<?xml version="1.0" encoding="utf-8"?>
<!-- Generator: Adobe Illustrator 23.0.3, SVG Export Plug-In . SVG Version: 6.00 Build 0)  -->
<svg version="1.1" id="Layer_1" xmlns="http://www.w3.org/2000/svg" xmlns:xlink="http://www.w3.org/1999/xlink" x="0px" y="0px"
	 viewBox="0 0 884 884" style="enable-background:new 0 0 884 884;" xml:space="preserve">
<style type="text/css">
	.st0{fill:#EA4E4E;stroke:#9B1B1B;stroke-width:4;stroke-miterlimit:10;}
	.st1{display:none;}
	.st2{display:inline;}
	.st3{fill:#EA4E4E;}
	.st4{fill:#FFFFFF;stroke:#000000;stroke-width:4;stroke-miterlimit:10;}
	.st5{fill:#FFFFFF;}
</style>
<g id="white_-_outline_copy">
	<g id="Layer_1_copy_1_">
		<g>
			<path class="st0" d="M142.8,181.5c34-23.2,135.8-25.9,216.2,8.4C485.8,244,573.9,341.3,661.2,367.2c62,16.7,73.1-29.2,85.8-45.3
				c11.9,57.2,2.9,96.1-8.6,142.4c-11.5,46.4-20.7,59.3-35.1,75.8c3.8-48,4.2-117-7.9-119.7s-24.2,31.3-40.7,42.4
				c-9-12.5-7.9-39.3-24.6-43.4s-35.3-10-44.5-19c-11.3-11.3-35.1-47.6-42.8-42.6c-6.7,4.2,25.9,54.1,36.8,85.8
				c-103-103-139.3-158.9-251.9-224.7C262.1,180.3,185.2,172.9,142.8,181.5z"/>
			<path class="st0" d="M466.7,391c58.7-1,69.1,18.6,103.4,53.9C551.3,472,474.5,414.4,466.7,391z"/>
			<path class="st0" d="M150.5,299.7c132.6-84.6,287.2,20.9,306.6,42.4c6.9,7.1-16.9,40.9-28.4,34
				C317.2,289.3,239.3,296.8,150.5,299.7z"/>
			<path class="st0" d="M243.7,343.8c14.6-5.8,91.5-0.6,93.2,21.7c-24.4,2.1-47.4,11.5-53.7,17.5C275.4,372.2,265,358,243.7,343.8z"
				/>
			<path class="st0" d="M144.1,391c26.7-15,77.9-15.2,95.5-6.5c-16.7,6.9-34.5,17.1-47,31.3C176.2,399.6,159.7,396.8,144.1,391z"/>
			<path class="st0" d="M681.7,530.7c22.3,69.3-20.5,109.7-43.9,119.5c-16.3-19.2-3.1-28.6-14.6-35.9
				c-11.5-7.3-132.8-27.6-156.6,6.9c-4.6-14.6-15.9-28.8-35.7-28.6c-50.1,1.5-91.9,25.5-142.2,54.7C308.2,580.4,355,547,394.1,523.4
				c0.6,6.9,5.8,26.9,16.1,26.9c78.1-1.3,76.7,10.7,90.2,5.4c11.5-4.4,10.2-21.9,23.2-33c14,23.4,33,47.4,42.8,47.4
				s26.7-16.7,34-31.7c9.8,25.1,15.7,40.1,29.7,40.1S663.3,560,681.7,530.7z"/>
		</g>
	</g>
</g>
<g id="white_-_outline_copy_2" class="st1">
	<g id="Layer_1_copy_2_" class="st2">
		<g>
			<path class="st3" d="M142.8,181.5c34-23.2,135.8-25.9,216.2,8.4C485.8,244,573.9,341.3,661.2,367.2c62,16.7,73.1-29.2,85.8-45.3
				c11.9,57.2,2.9,96.1-8.6,142.4c-11.5,46.4-20.7,59.3-35.1,75.8c3.8-48,4.2-117-7.9-119.7s-24.2,31.3-40.7,42.4
				c-9-12.5-7.9-39.3-24.6-43.4s-35.3-10-44.5-19c-11.3-11.3-35.1-47.6-42.8-42.6c-6.7,4.2,25.9,54.1,36.8,85.8
				c-103-103-139.3-158.9-251.9-224.7C262.1,180.3,185.2,172.9,142.8,181.5z"/>
			<path class="st3" d="M466.7,391c58.7-1,69.1,18.6,103.4,53.9C551.3,472,474.5,414.4,466.7,391z"/>
			<path class="st3" d="M150.5,299.7c132.6-84.6,287.2,20.9,306.6,42.4c6.9,7.1-16.9,40.9-28.4,34
				C317.2,289.3,239.3,296.8,150.5,299.7z"/>
			<path class="st3" d="M243.7,343.8c14.6-5.8,91.5-0.6,93.2,21.7c-24.4,2.1-47.4,11.5-53.7,17.5C275.4,372.2,265,358,243.7,343.8z"
				/>
			<path class="st3" d="M144.1,391c26.7-15,77.9-15.2,95.5-6.5c-16.7,6.9-34.5,17.1-47,31.3C176.2,399.6,159.7,396.8,144.1,391z"/>
			<path class="st3" d="M681.7,530.7c22.3,69.3-20.5,109.7-43.9,119.5c-16.3-19.2-3.1-28.6-14.6-35.9
				c-11.5-7.3-132.8-27.6-156.6,6.9c-4.6-14.6-15.9-28.8-35.7-28.6c-50.1,1.5-91.9,25.5-142.2,54.7C308.2,580.4,355,547,394.1,523.4
				c0.6,6.9,5.8,26.9,16.1,26.9c78.1-1.3,76.7,10.7,90.2,5.4c11.5-4.4,10.2-21.9,23.2-33c14,23.4,33,47.4,42.8,47.4
				s26.7-16.7,34-31.7c9.8,25.1,15.7,40.1,29.7,40.1S663.3,560,681.7,530.7z"/>
		</g>
	</g>
</g>
<g id="white_-_outline" class="st1">
	<g id="Layer_1_copy" class="st2">
		<g>
			<path class="st4" d="M142.8,181.5c34-23.2,135.8-25.9,216.2,8.4C485.8,244,573.9,341.3,661.2,367.2c62,16.7,73.1-29.2,85.8-45.3
				c11.9,57.2,2.9,96.1-8.6,142.4c-11.5,46.4-20.7,59.3-35.1,75.8c3.8-48,4.2-117-7.9-119.7s-24.2,31.3-40.7,42.4
				c-9-12.5-7.9-39.3-24.6-43.4s-35.3-10-44.5-19c-11.3-11.3-35.1-47.6-42.8-42.6c-6.7,4.2,25.9,54.1,36.8,85.8
				c-103-103-139.3-158.9-251.9-224.7C262.1,180.3,185.2,172.9,142.8,181.5z"/>
			<path class="st4" d="M466.7,391c58.7-1,69.1,18.6,103.4,53.9C551.3,472,474.5,414.4,466.7,391z"/>
			<path class="st4" d="M150.5,299.7c132.6-84.6,287.2,20.9,306.6,42.4c6.9,7.1-16.9,40.9-28.4,34
				C317.2,289.3,239.3,296.8,150.5,299.7z"/>
			<path class="st4" d="M243.7,343.8c14.6-5.8,91.5-0.6,93.2,21.7c-24.4,2.1-47.4,11.5-53.7,17.5C275.4,372.2,265,358,243.7,343.8z"
				/>
			<path class="st4" d="M144.1,391c26.7-15,77.9-15.2,95.5-6.5c-16.7,6.9-34.5,17.1-47,31.3C176.2,399.6,159.7,396.8,144.1,391z"/>
			<path class="st4" d="M681.7,530.7c22.3,69.3-20.5,109.7-43.9,119.5c-16.3-19.2-3.1-28.6-14.6-35.9
				c-11.5-7.3-132.8-27.6-156.6,6.9c-4.6-14.6-15.9-28.8-35.7-28.6c-50.1,1.5-91.9,25.5-142.2,54.7C308.2,580.4,355,547,394.1,523.4
				c0.6,6.9,5.8,26.9,16.1,26.9c78.1-1.3,76.7,10.7,90.2,5.4c11.5-4.4,10.2-21.9,23.2-33c14,23.4,33,47.4,42.8,47.4
				s26.7-16.7,34-31.7c9.8,25.1,15.7,40.1,29.7,40.1S663.3,560,681.7,530.7z"/>
		</g>
	</g>
</g>
<g id="white" class="st1">
	<g id="Layer_1_copy_3_" class="st2">
		<g>
			<path class="st5" d="M142.8,181.5c34-23.2,135.8-25.9,216.2,8.4C485.8,244,573.9,341.3,661.2,367.2c62,16.7,73.1-29.2,85.8-45.3
				c11.9,57.2,2.9,96.1-8.6,142.4c-11.5,46.4-20.7,59.3-35.1,75.8c3.8-48,4.2-117-7.9-119.7s-24.2,31.3-40.7,42.4
				c-9-12.5-7.9-39.3-24.6-43.4s-35.3-10-44.5-19c-11.3-11.3-35.1-47.6-42.8-42.6c-6.7,4.2,25.9,54.1,36.8,85.8
				c-103-103-139.3-158.9-251.9-224.7C262.1,180.3,185.2,172.9,142.8,181.5z"/>
			<path class="st5" d="M466.7,391c58.7-1,69.1,18.6,103.4,53.9C551.3,472,474.5,414.4,466.7,391z"/>
			<path class="st5" d="M150.5,299.7c132.6-84.6,287.2,20.9,306.6,42.4c6.9,7.1-16.9,40.9-28.4,34
				C317.2,289.3,239.3,296.8,150.5,299.7z"/>
			<path class="st5" d="M243.7,343.8c14.6-5.8,91.5-0.6,93.2,21.7c-24.4,2.1-47.4,11.5-53.7,17.5C275.4,372.2,265,358,243.7,343.8z"
				/>
			<path class="st5" d="M144.1,391c26.7-15,77.9-15.2,95.5-6.5c-16.7,6.9-34.5,17.1-47,31.3C176.2,399.6,159.7,396.8,144.1,391z"/>
			<path class="st5" d="M681.7,530.7c22.3,69.3-20.5,109.7-43.9,119.5c-16.3-19.2-3.1-28.6-14.6-35.9
				c-11.5-7.3-132.8-27.6-156.6,6.9c-4.6-14.6-15.9-28.8-35.7-28.6c-50.1,1.5-91.9,25.5-142.2,54.7C308.2,580.4,355,547,394.1,523.4
				c0.6,6.9,5.8,26.9,16.1,26.9c78.1-1.3,76.7,10.7,90.2,5.4c11.5-4.4,10.2-21.9,23.2-33c14,23.4,33,47.4,42.8,47.4
				s26.7-16.7,34-31.7c9.8,25.1,15.7,40.1,29.7,40.1S663.3,560,681.7,530.7z"/>
		</g>
	</g>
</g>
</svg>
