<?xml version="1.0" encoding="utf-8"?>
<!-- Generator: Adobe Illustrator 23.0.3, SVG Export Plug-In . SVG Version: 6.00 Build 0)  -->
<svg version="1.1" id="Layer_1" xmlns="http://www.w3.org/2000/svg" xmlns:xlink="http://www.w3.org/1999/xlink" x="0px" y="0px"
	 viewBox="0 0 884 884" style="enable-background:new 0 0 884 884;" xml:space="preserve">
<style type="text/css">
	.st0{display:none;}
	.st1{display:inline;}
	.st2{fill:#6CB2FF;stroke:#206FB7;stroke-width:4;stroke-miterlimit:10;}
	.st3{fill:#6CB2FF;}
	.st4{fill:#FFFFFF;stroke:#000000;stroke-width:4;stroke-miterlimit:10;}
	.st5{fill:#FFFFFF;}
</style>
<g id="color_-_outline" class="st0">
	<g id="Layer_1_copy_4_" class="st1">
		<g>
			<path class="st2" d="M476.4,338.2c35.1-12.3,97.7-35.9,155.3,11.9c44.6,37,42.4,79.6,35.7,85.8c-8.1,7.1-31.3,5.5-38.8,0.2
				c-10.1-7.3,6.3-29.1-23-44.6c-49.1-25.8-89.9,23.6-93.7,41.4c-8.3,37.6-7.9,93.7-28.7,94.9c-16.8,1,5.2-49.3-19.8-58
				c-14.3-5,17,50.3-9.3,101.8c-10.5,20.4,44.6-4,57.2-32.7c14.1-32.3-12.3-72.7,28.1-113.1c31.7-31.7,58.4-22.4,60.4,2
				c2.4,29.7-39,25.9-33.9,34.1c5.2,8.1,54.1-11.7,88.3,2c71.3,28.5,71.3,64.2,79.6,76.7s15.3-66.4-6.1-124.8
				c-27.3-74.9-92.1-109.1-97.9-136.9c-2.2-10.1-17.8-12.7-15.5-4.6c5.3,18.2-17.4,28.9-30.1,28.9c-26.1,0-28.7-21.4-21-36.4
				c13.5-26.5,15.3,10.1,26.1-8.9c7.5-13.1-2.4-20.6-16.8-33.7c-14.5-13.1-24-16-28.3-11.3c-6.9,7.3,11.9,16.6-1.8,30.7
				c-8.7,8.7-17.2,2.4-27.1-0.4c-9.9-3-20.6-6.1-21.2-18.6c-1-19.6,19-12.9,19-24c0-6.5-9.1-10.5-28.5-10.5s-31.9-1-35.1,13.9
				c-4.6,21.4,21.4-4.6,13.7,24.2c-4.4,16.2-23,26.5-42.6,9.1c-9.5-8.5-18.2-27.1-2.2-37.2c7.1-4.6-6.1-13.1-14.5-6.9
				c-22.8,16.8-94.9-5.3-165,32.1c-54.9,29.3-102.4,92.5-87.8,88.7c14.7-3.8,38.2-30.3,110.5-3.8c34.7,12.7,59.6,61.8,68.9,59.2
				c9.3-2.6-24.2-27.5-2.4-48.1c17.8-16.8,43.8-7.7,44.6,37.2c0.8,45.4-41.8,74.3-56.8,110.3c-9.3,22.4,14.7,78,20.6,56.1
				c14.7-55.9,76.5-81,62.6-86.8c-24.1-10.1-41.1,45.3-53,33.6c-14.7-14.7,23.6-55.7,42.6-89.1c8.9-15.8,12.5-83.4-42.2-93.3
				c-30.5-5.5-31.9,21-44.4,20c-11.7-0.8-31.5-18.2-33.7-28.7c-2-9.9,28.5-37,86.4-34.9C429.7,247.9,442.2,277.4,476.4,338.2z"/>
			<path class="st2" d="M421.9,327.5c13.1-11.3,32.1,53.5,21.4,84.2C440,391.5,406.3,341,421.9,327.5z"/>
			<path class="st2" d="M448.3,415.9c13.7-30.9,60.2-69.7,73.3-50.3C534.5,384.4,481.2,394.3,448.3,415.9z"/>
			<path class="st2" d="M416.8,486c-3.2,30.9,11.3,41.2,4.6,53.1c-16.6,21.8-21.8,21.6-30.5,46.2c-10.3,28.3-25.4,149.4-110.9,146.2
				c-35.7-1.2-57.2-27.7-59.6-54.3c-1.8-19.2,20.2-70.9,73.9-100.6c-21.8,41.2-15.8,42.6-20.8,53.7c-4.6,10.3-39.6,9.7-39.6,47.3
				c0,17.4,20.8,39.6,40.8,39.6c56.3,0,87-75.9,103.4-160.6c3.2-16.2-7.5-12.1-4.4-29.7C376.6,511,398.8,511.6,416.8,486z"/>
		</g>
	</g>
</g>
<g id="color" class="st0">
	<g id="Layer_1_copy_1_" class="st1">
		<g>
			<path class="st3" d="M476.4,338.2c35.1-12.3,97.7-35.9,155.3,11.9c44.6,37,42.4,79.6,35.7,85.8c-8.1,7.1-31.3,5.5-38.8,0.2
				c-10.1-7.3,6.3-29.1-23-44.6c-49.1-25.8-89.9,23.6-93.7,41.4c-8.3,37.6-7.9,93.7-28.7,94.9c-16.8,1,5.2-49.3-19.8-58
				c-14.3-5,17,50.3-9.3,101.8c-10.5,20.4,44.6-4,57.2-32.7c14.1-32.3-12.3-72.7,28.1-113.1c31.7-31.7,58.4-22.4,60.4,2
				c2.4,29.7-39,25.9-33.9,34.1c5.2,8.1,54.1-11.7,88.3,2c71.3,28.5,71.3,64.2,79.6,76.7s15.3-66.4-6.1-124.8
				c-27.3-74.9-92.1-109.1-97.9-136.9c-2.2-10.1-17.8-12.7-15.5-4.6c5.3,18.2-17.4,28.9-30.1,28.9c-26.1,0-28.7-21.4-21-36.4
				c13.5-26.5,15.3,10.1,26.1-8.9c7.5-13.1-2.4-20.6-16.8-33.7c-14.5-13.1-24-16-28.3-11.3c-6.9,7.3,11.9,16.6-1.8,30.7
				c-8.7,8.7-17.2,2.4-27.1-0.4c-9.9-3-20.6-6.1-21.2-18.6c-1-19.6,19-12.9,19-24c0-6.5-9.1-10.5-28.5-10.5s-31.9-1-35.1,13.9
				c-4.6,21.4,21.4-4.6,13.7,24.2c-4.4,16.2-23,26.5-42.6,9.1c-9.5-8.5-18.2-27.1-2.2-37.2c7.1-4.6-6.1-13.1-14.5-6.9
				c-22.8,16.8-94.9-5.3-165,32.1c-54.9,29.3-102.4,92.5-87.8,88.7c14.7-3.8,38.2-30.3,110.5-3.8c34.7,12.7,59.6,61.8,68.9,59.2
				c9.3-2.6-24.2-27.5-2.4-48.1c17.8-16.8,43.8-7.7,44.6,37.2c0.8,45.4-41.8,74.3-56.8,110.3c-9.3,22.4,14.7,78,20.6,56.1
				c14.7-55.9,76.5-81,62.6-86.8c-24.1-10.1-41.1,45.3-53,33.6c-14.7-14.7,23.6-55.7,42.6-89.1c8.9-15.8,12.5-83.4-42.2-93.3
				c-30.5-5.5-31.9,21-44.4,20c-11.7-0.8-31.5-18.2-33.7-28.7c-2-9.9,28.5-37,86.4-34.9C429.7,247.9,442.2,277.4,476.4,338.2z"/>
			<path class="st3" d="M421.9,327.5c13.1-11.3,32.1,53.5,21.4,84.2C440,391.5,406.3,341,421.9,327.5z"/>
			<path class="st3" d="M448.3,415.9c13.7-30.9,60.2-69.7,73.3-50.3C534.5,384.4,481.2,394.3,448.3,415.9z"/>
			<path class="st3" d="M416.8,486c-3.2,30.9,11.3,41.2,4.6,53.1c-16.6,21.8-21.8,21.6-30.5,46.2c-10.3,28.3-25.4,149.4-110.9,146.2
				c-35.7-1.2-57.2-27.7-59.6-54.3c-1.8-19.2,20.2-70.9,73.9-100.6c-21.8,41.2-15.8,42.6-20.8,53.7c-4.6,10.3-39.6,9.7-39.6,47.3
				c0,17.4,20.8,39.6,40.8,39.6c56.3,0,87-75.9,103.4-160.6c3.2-16.2-7.5-12.1-4.4-29.7C376.6,511,398.8,511.6,416.8,486z"/>
		</g>
	</g>
</g>
<g id="white_-_outline" class="st0">
	<g id="Layer_1_copy_2_" class="st1">
		<g>
			<path class="st4" d="M476.4,338.2c35.1-12.3,97.7-35.9,155.3,11.9c44.6,37,42.4,79.6,35.7,85.8c-8.1,7.1-31.3,5.5-38.8,0.2
				c-10.1-7.3,6.3-29.1-23-44.6c-49.1-25.8-89.9,23.6-93.7,41.4c-8.3,37.6-7.9,93.7-28.7,94.9c-16.8,1,5.2-49.3-19.8-58
				c-14.3-5,17,50.3-9.3,101.8c-10.5,20.4,44.6-4,57.2-32.7c14.1-32.3-12.3-72.7,28.1-113.1c31.7-31.7,58.4-22.4,60.4,2
				c2.4,29.7-39,25.9-33.9,34.1c5.2,8.1,54.1-11.7,88.3,2c71.3,28.5,71.3,64.2,79.6,76.7s15.3-66.4-6.1-124.8
				c-27.3-74.9-92.1-109.1-97.9-136.9c-2.2-10.1-17.8-12.7-15.5-4.6c5.3,18.2-17.4,28.9-30.1,28.9c-26.1,0-28.7-21.4-21-36.4
				c13.5-26.5,15.3,10.1,26.1-8.9c7.5-13.1-2.4-20.6-16.8-33.7c-14.5-13.1-24-16-28.3-11.3c-6.9,7.3,11.9,16.6-1.8,30.7
				c-8.7,8.7-17.2,2.4-27.1-0.4c-9.9-3-20.6-6.1-21.2-18.6c-1-19.6,19-12.9,19-24c0-6.5-9.1-10.5-28.5-10.5s-31.9-1-35.1,13.9
				c-4.6,21.4,21.4-4.6,13.7,24.2c-4.4,16.2-23,26.5-42.6,9.1c-9.5-8.5-18.2-27.1-2.2-37.2c7.1-4.6-6.1-13.1-14.5-6.9
				c-22.8,16.8-94.9-5.3-165,32.1c-54.9,29.3-102.4,92.5-87.8,88.7c14.7-3.8,38.2-30.3,110.5-3.8c34.7,12.7,59.6,61.8,68.9,59.2
				c9.3-2.6-24.2-27.5-2.4-48.1c17.8-16.8,43.8-7.7,44.6,37.2c0.8,45.4-41.8,74.3-56.8,110.3c-9.3,22.4,14.7,78,20.6,56.1
				c14.7-55.9,76.5-81,62.6-86.8c-24.1-10.1-41.1,45.3-53,33.6c-14.7-14.7,23.6-55.7,42.6-89.1c8.9-15.8,12.5-83.4-42.2-93.3
				c-30.5-5.5-31.9,21-44.4,20c-11.7-0.8-31.5-18.2-33.7-28.7c-2-9.9,28.5-37,86.4-34.9C429.7,247.9,442.2,277.4,476.4,338.2z"/>
			<path class="st4" d="M421.9,327.5c13.1-11.3,32.1,53.5,21.4,84.2C440,391.5,406.3,341,421.9,327.5z"/>
			<path class="st4" d="M448.3,415.9c13.7-30.9,60.2-69.7,73.3-50.3C534.5,384.4,481.2,394.3,448.3,415.9z"/>
			<path class="st4" d="M416.8,486c-3.2,30.9,11.3,41.2,4.6,53.1c-16.6,21.8-21.8,21.6-30.5,46.2c-10.3,28.3-25.4,149.4-110.9,146.2
				c-35.7-1.2-57.2-27.7-59.6-54.3c-1.8-19.2,20.2-70.9,73.9-100.6c-21.8,41.2-15.8,42.6-20.8,53.7c-4.6,10.3-39.6,9.7-39.6,47.3
				c0,17.4,20.8,39.6,40.8,39.6c56.3,0,87-75.9,103.4-160.6c3.2-16.2-7.5-12.1-4.4-29.7C376.6,511,398.8,511.6,416.8,486z"/>
		</g>
	</g>
</g>
<g id="white">
	<g id="Layer_1_copy_3_">
		<g>
			<path class="st5" d="M476.4,338.2c35.1-12.3,97.7-35.9,155.3,11.9c44.6,37,42.4,79.6,35.7,85.8c-8.1,7.1-31.3,5.5-38.8,0.2
				c-10.1-7.3,6.3-29.1-23-44.6c-49.1-25.8-89.9,23.6-93.7,41.4c-8.3,37.6-7.9,93.7-28.7,94.9c-16.8,1,5.2-49.3-19.8-58
				c-14.3-5,17,50.3-9.3,101.8c-10.5,20.4,44.6-4,57.2-32.7c14.1-32.3-12.3-72.7,28.1-113.1c31.7-31.7,58.4-22.4,60.4,2
				c2.4,29.7-39,25.9-33.9,34.1c5.2,8.1,54.1-11.7,88.3,2c71.3,28.5,71.3,64.2,79.6,76.7s15.3-66.4-6.1-124.8
				c-27.3-74.9-92.1-109.1-97.9-136.9c-2.2-10.1-17.8-12.7-15.5-4.6c5.3,18.2-17.4,28.9-30.1,28.9c-26.1,0-28.7-21.4-21-36.4
				c13.5-26.5,15.3,10.1,26.1-8.9c7.5-13.1-2.4-20.6-16.8-33.7c-14.5-13.1-24-16-28.3-11.3c-6.9,7.3,11.9,16.6-1.8,30.7
				c-8.7,8.7-17.2,2.4-27.1-0.4c-9.9-3-20.6-6.1-21.2-18.6c-1-19.6,19-12.9,19-24c0-6.5-9.1-10.5-28.5-10.5s-31.9-1-35.1,13.9
				c-4.6,21.4,21.4-4.6,13.7,24.2c-4.4,16.2-23,26.5-42.6,9.1c-9.5-8.5-18.2-27.1-2.2-37.2c7.1-4.6-6.1-13.1-14.5-6.9
				c-22.8,16.8-94.9-5.3-165,32.1c-54.9,29.3-102.4,92.5-87.8,88.7c14.7-3.8,38.2-30.3,110.5-3.8c34.7,12.7,59.6,61.8,68.9,59.2
				c9.3-2.6-24.2-27.5-2.4-48.1c17.8-16.8,43.8-7.7,44.6,37.2c0.8,45.4-41.8,74.3-56.8,110.3c-9.3,22.4,14.7,78,20.6,56.1
				c14.7-55.9,76.5-81,62.6-86.8c-24.1-10.1-41.1,45.3-53,33.6c-14.7-14.7,23.6-55.7,42.6-89.1c8.9-15.8,12.5-83.4-42.2-93.3
				c-30.5-5.5-31.9,21-44.4,20c-11.7-0.8-31.5-18.2-33.7-28.7c-2-9.9,28.5-37,86.4-34.9C429.7,247.9,442.2,277.4,476.4,338.2z"/>
			<path class="st5" d="M421.9,327.5c13.1-11.3,32.1,53.5,21.4,84.2C440,391.5,406.3,341,421.9,327.5z"/>
			<path class="st5" d="M448.3,415.9c13.7-30.9,60.2-69.7,73.3-50.3C534.5,384.4,481.2,394.3,448.3,415.9z"/>
			<path class="st5" d="M416.8,486c-3.2,30.9,11.3,41.2,4.6,53.1c-16.6,21.8-21.8,21.6-30.5,46.2c-10.3,28.3-25.4,149.4-110.9,146.2
				c-35.7-1.2-57.2-27.7-59.6-54.3c-1.8-19.2,20.2-70.9,73.9-100.6c-21.8,41.2-15.8,42.6-20.8,53.7c-4.6,10.3-39.6,9.7-39.6,47.3
				c0,17.4,20.8,39.6,40.8,39.6c56.3,0,87-75.9,103.4-160.6c3.2-16.2-7.5-12.1-4.4-29.7C376.6,511,398.8,511.6,416.8,486z"/>
		</g>
	</g>
</g>
</svg>
